<svg width="36" height="36" viewBox="0 0 36 36" fill="none" xmlns="http://www.w3.org/2000/svg">
<path fill-rule="evenodd" clip-rule="evenodd" d="M17.7862 0C7.96715 0 0 7.96715 0 17.7862C0 27.6053 7.96715 35.5724 17.7862 35.5724C27.586 35.5724 35.5724 27.6053 35.5724 17.7862C35.5724 7.96715 27.586 0 17.7862 0ZM29.5344 8.19864C31.6564 10.7836 32.9296 14.0824 32.9682 17.6512C32.4666 17.5548 27.4509 16.5323 22.3967 17.1689C22.281 16.9181 22.1845 16.648 22.0688 16.378C21.7601 15.645 21.4129 14.8926 21.0657 14.1788C26.66 11.9025 29.2064 8.62304 29.5344 8.19864ZM17.7862 2.62357C21.6444 2.62357 25.1746 4.07039 27.8561 6.44317C27.586 6.82899 25.2903 9.89624 19.8889 11.9218C17.4004 7.34983 14.6418 3.6074 14.2174 3.02867C15.3555 2.7586 16.5516 2.62357 17.7862 2.62357ZM11.3238 4.05109C11.7289 4.59124 14.4296 8.35297 16.9567 12.8284C9.85766 14.719 3.58811 14.6804 2.91293 14.6804C3.89676 9.9734 7.07976 6.05734 11.3238 4.05109ZM2.58498 17.8056C2.58498 17.6512 2.58498 17.4969 2.58498 17.3426C3.24087 17.3618 10.61 17.4583 18.1913 15.182C18.6351 16.0307 19.0402 16.8988 19.426 17.7669C19.233 17.8248 19.0208 17.8827 18.8279 17.9405C10.9958 20.4676 6.82899 27.3738 6.48174 27.9525C4.07038 25.2711 2.58498 21.7023 2.58498 17.8056ZM17.7862 32.9874C14.2752 32.9874 11.0344 31.7914 8.46871 29.7851C8.73878 29.2258 11.8253 23.2842 20.3905 20.2941C20.429 20.2747 20.4484 20.2747 20.4869 20.2555C22.6282 25.7919 23.4964 30.441 23.7278 31.7721C21.8952 32.563 19.8889 32.9874 17.7862 32.9874ZM26.2549 30.3832C26.1006 29.4572 25.2903 25.0203 23.3034 19.561C28.0683 18.8086 32.2351 20.0433 32.756 20.2169C32.1001 24.4416 29.6694 28.0876 26.2549 30.3832Z" fill="black"/>
</svg>
