<svg width="36" height="36" viewBox="0 0 36 36" fill="none" xmlns="http://www.w3.org/2000/svg">
<path fill-rule="evenodd" clip-rule="evenodd" d="M18.0934 0.740967C13.871 0.743158 9.78703 2.23865 6.57178 4.96004C3.35654 7.68143 1.21966 11.4513 0.543257 15.5954C-0.133152 19.7396 0.695006 23.9879 2.87966 27.5806C5.06432 31.1734 8.46301 33.8764 12.468 35.2062C13.3516 35.3702 13.6844 34.8225 13.6844 34.3569C13.6844 33.8913 13.6667 32.5413 13.6608 31.0653C8.71284 32.1342 7.66729 28.9773 7.66729 28.9773C6.8603 26.9274 5.69399 26.3885 5.69399 26.3885C4.08 25.2933 5.81475 25.3138 5.81475 25.3138C7.6025 25.4397 8.54203 27.1382 8.54203 27.1382C10.1266 29.8412 12.7036 29.0593 13.7168 28.6025C13.8758 27.4574 14.3382 26.6785 14.8478 26.2363C10.8953 25.7911 6.74249 24.2742 6.74249 17.4977C6.71799 15.7402 7.37388 14.0407 8.57443 12.7506C8.39182 12.3055 7.78215 10.5074 8.74819 8.06508C8.74819 8.06508 10.2414 7.59067 13.6402 9.87781C16.5555 9.08511 19.6313 9.08511 22.5466 9.87781C25.9424 7.59067 27.4327 8.06508 27.4327 8.06508C28.4017 10.5016 27.792 12.2997 27.6094 12.7506C28.8138 14.0409 29.471 15.7434 29.4443 17.5036C29.4443 24.2947 25.2827 25.7911 21.3243 26.2275C21.9605 26.778 22.5289 27.8528 22.5289 29.5044C22.5289 31.8706 22.5083 33.7742 22.5083 34.3569C22.5083 34.8284 22.8293 35.379 23.7306 35.2062C27.736 33.8762 31.135 31.1728 33.3197 27.5794C35.5043 23.986 36.332 19.7371 35.6548 15.5925C34.9777 11.448 32.8397 7.67812 29.6234 4.9572C26.4071 2.23628 22.3222 0.741769 18.0993 0.740967H18.0934Z" fill="#191717"/>
</svg>
