<svg width="36" height="36" viewBox="0 0 36 36" fill="none" xmlns="http://www.w3.org/2000/svg">
<path d="M18.0426 3.20291C22.7948 3.20291 23.3576 3.22375 25.2265 3.30713C26.9635 3.38355 27.9014 3.67536 28.5267 3.91853C29.3535 4.23812 29.951 4.6272 30.5694 5.24555C31.1946 5.87084 31.5768 6.4614 31.8964 7.28818C32.1395 7.91348 32.4314 8.85837 32.5078 10.5884C32.5911 12.4643 32.612 13.027 32.612 17.7723C32.612 22.5246 32.5911 23.0874 32.5078 24.9563C32.4314 26.6932 32.1395 27.6312 31.8964 28.2565C31.5768 29.0833 31.1877 29.6808 30.5694 30.2991C29.9441 30.9244 29.3535 31.3065 28.5267 31.6261C27.9014 31.8693 26.9565 32.1611 25.2265 32.2375C23.3506 32.3209 22.7879 32.3417 18.0426 32.3417C13.2903 32.3417 12.7275 32.3209 10.8586 32.2375C9.12167 32.1611 8.18372 31.8693 7.55843 31.6261C6.73164 31.3065 6.13414 30.9175 5.51579 30.2991C4.89049 29.6738 4.50837 29.0833 4.18877 28.2565C3.9456 27.6312 3.65379 26.6863 3.57737 24.9563C3.494 23.0804 3.47315 22.5176 3.47315 17.7723C3.47315 13.0201 3.494 12.4573 3.57737 10.5884C3.65379 8.85142 3.9456 7.91348 4.18877 7.28818C4.50837 6.4614 4.89744 5.8639 5.51579 5.24555C6.14109 4.62025 6.73164 4.23812 7.55843 3.91853C8.18372 3.67536 9.12862 3.38355 10.8586 3.30713C12.7275 3.22375 13.2903 3.20291 18.0426 3.20291ZM18.0426 0C13.2139 0 12.6094 0.0208432 10.7127 0.104216C8.82292 0.187589 7.52369 0.49329 6.39815 0.930998C5.22398 1.38955 4.23046 1.994 3.24388 2.98753C2.25035 3.97411 1.6459 4.96764 1.18735 6.13486C0.749637 7.26734 0.443937 8.55962 0.360564 10.4494C0.277191 12.3531 0.256348 12.9575 0.256348 17.7862C0.256348 22.6149 0.277191 23.2194 0.360564 25.1161C0.443937 27.0059 0.749637 28.3051 1.18735 29.4306C1.6459 30.6048 2.25035 31.5983 3.24388 32.5849C4.23046 33.5715 5.22398 34.1829 6.39121 34.6345C7.52369 35.0722 8.81597 35.3779 10.7058 35.4613C12.6025 35.5447 13.2069 35.5655 18.0356 35.5655C22.8643 35.5655 23.4688 35.5447 25.3655 35.4613C27.2553 35.3779 28.5545 35.0722 29.68 34.6345C30.8473 34.1829 31.8408 33.5715 32.8274 32.5849C33.8139 31.5983 34.4254 30.6048 34.877 29.4376C35.3147 28.3051 35.6204 27.0128 35.7037 25.123C35.7871 23.2263 35.808 22.6219 35.808 17.7932C35.808 12.9645 35.7871 12.36 35.7037 10.4633C35.6204 8.57352 35.3147 7.27429 34.877 6.14875C34.4392 4.96764 33.8348 3.97411 32.8413 2.98753C31.8547 2.00095 30.8612 1.38955 29.6939 0.937945C28.5615 0.500237 27.2692 0.194537 25.3794 0.111164C23.4757 0.0208432 22.8713 0 18.0426 0Z" fill="#000100"/>
<path d="M18.0425 8.6499C12.9985 8.6499 8.90625 12.7421 8.90625 17.7862C8.90625 22.8302 12.9985 26.9225 18.0425 26.9225C23.0866 26.9225 27.1788 22.8302 27.1788 17.7862C27.1788 12.7421 23.0866 8.6499 18.0425 8.6499ZM18.0425 23.7126C14.7701 23.7126 12.1161 21.0586 12.1161 17.7862C12.1161 14.5138 14.7701 11.8598 18.0425 11.8598C21.3149 11.8598 23.969 14.5138 23.969 17.7862C23.969 21.0586 21.3149 23.7126 18.0425 23.7126Z" fill="#000100"/>
<path d="M29.6731 8.28872C29.6731 9.46984 28.7144 10.4217 27.5402 10.4217C26.3591 10.4217 25.4072 9.46289 25.4072 8.28872C25.4072 7.1076 26.366 6.15576 27.5402 6.15576C28.7144 6.15576 29.6731 7.11455 29.6731 8.28872Z" fill="#000100"/>
</svg>
