<svg width="36" height="36" viewBox="0 0 36 36" fill="none" xmlns="http://www.w3.org/2000/svg">
<path d="M32.9465 0H2.62594C1.9295 0 1.26158 0.276661 0.76912 0.76912C0.276661 1.26158 0 1.9295 0 2.62594V32.9465C0 33.6429 0.276661 34.3109 0.76912 34.8033C1.26158 35.2958 1.9295 35.5724 2.62594 35.5724H32.9465C33.6429 35.5724 34.3109 35.2958 34.8033 34.8033C35.2958 34.3109 35.5724 33.6429 35.5724 32.9465V2.62594C35.5724 1.9295 35.2958 1.26158 34.8033 0.76912C34.3109 0.276661 33.6429 0 32.9465 0ZM10.6026 30.3033H5.25435V13.315H10.6026V30.3033ZM7.92475 10.9608C7.31809 10.9573 6.72603 10.7743 6.2233 10.4347C5.72057 10.0951 5.3297 9.61424 5.10002 9.05273C4.87033 8.49121 4.81213 7.87425 4.93276 7.27969C5.05338 6.68513 5.34743 6.13962 5.77779 5.71202C6.20815 5.28441 6.75553 4.99388 7.35085 4.87707C7.94617 4.76027 8.56275 4.82243 9.12278 5.05571C9.68281 5.289 10.1612 5.68295 10.4975 6.18785C10.8339 6.69274 11.0131 7.28596 11.0126 7.89264C11.0184 8.29881 10.9423 8.70197 10.7888 9.07809C10.6354 9.45422 10.4079 9.79561 10.1197 10.0819C9.83157 10.3682 9.48873 10.5936 9.11162 10.7446C8.73452 10.8956 8.33087 10.9691 7.92475 10.9608ZM30.3156 30.3181H24.9699V21.0372C24.9699 18.3 23.8064 17.4552 22.3044 17.4552C20.7185 17.4552 19.1622 18.6508 19.1622 21.1063V30.3181H13.814V13.3273H18.9572V15.6815H19.0263C19.5426 14.6366 21.3509 12.8505 24.1102 12.8505C27.0943 12.8505 30.3181 14.6218 30.3181 19.8094L30.3156 30.3181Z" fill="black"/>
</svg>
