<svg width="36" height="26" viewBox="0 0 36 26" fill="none" xmlns="http://www.w3.org/2000/svg">
<path d="M34.8287 3.91297C34.6275 3.15619 34.2312 2.4655 33.6793 1.91003C33.1273 1.35456 32.4392 0.953788 31.6837 0.74783C28.9026 8.83451e-08 17.7862 0 17.7862 0C17.7862 0 6.66983 8.83451e-08 3.88872 0.74783C3.13324 0.953788 2.4451 1.35456 1.89318 1.91003C1.34125 2.4655 0.944901 3.15619 0.743788 3.91297C8.83451e-08 6.70621 0 12.5312 0 12.5312C0 12.5312 8.83451e-08 18.3562 0.743788 21.1494C0.944901 21.9062 1.34125 22.5969 1.89318 23.1524C2.4451 23.7078 3.13324 24.1086 3.88872 24.3146C6.66983 25.0624 17.7862 25.0624 17.7862 25.0624C17.7862 25.0624 28.9026 25.0624 31.6837 24.3146C32.4392 24.1086 33.1273 23.7078 33.6793 23.1524C34.2312 22.5969 34.6275 21.9062 34.8287 21.1494C35.5724 18.3562 35.5724 12.5312 35.5724 12.5312C35.5724 12.5312 35.5724 6.70621 34.8287 3.91297Z" fill="black"/>
<path d="M14.1479 17.8205V7.2417L23.4453 12.5311L14.1479 17.8205Z" fill="#FEFEFE"/>
</svg>
