<svg id="Layer_1" data-name="Layer 1" xmlns="http://www.w3.org/2000/svg" viewBox="0 0 165.86 57.72"><defs><style>.cls-1{fill:#fff;}.cls-2{fill:none;stroke:#ff5b38;stroke-miterlimit:10;stroke-width:0.5px;}.cls-3{fill:#ff5b38;}</style></defs><path class="cls-1" d="M31.51,33a2.69,2.69,0,0,0,1.59.76v1q-2.88-.15-7.31-.15c-3.26,0-5.7,0-7.3.15v-1a7.56,7.56,0,0,0,2.6-.45A1.3,1.3,0,0,0,21.86,32a6.76,6.76,0,0,0-.58-2.31L18.4,21.8H7.93L6.68,25.12a16,16,0,0,0-1.35,5.33,2.71,2.71,0,0,0,1.08,2.47,6.43,6.43,0,0,0,3.2.79v1q-3.27-.15-6-.15A36.43,36.43,0,0,0,0,34.68v-1q2.36-.42,4.13-5l11-28.1c.35,0,.92.05,1.68.05S18.08.6,18.4.57L30.07,30.64A6,6,0,0,0,31.51,33ZM18.06,20.84l-4.75-13-5,13Z"/><path class="cls-1" d="M59.71,19.68c-2-1.59-5-2.55-9.18-2.87v-.1a13.35,13.35,0,0,0,7.19-3.27,7.22,7.22,0,0,0,2.42-5.19,6.34,6.34,0,0,0-3-5.47c-2-1.37-5-2.06-8.82-2.06-.83,0-1.56,0-2.2,0L40.74.81C37.5.81,35.07.76,33.43.67v1A8.39,8.39,0,0,1,35.77,2a1.66,1.66,0,0,1,1,1.11A9.23,9.23,0,0,1,37,5.76V29.59a9.23,9.23,0,0,1-.27,2.64,1.65,1.65,0,0,1-1,1.1,8.39,8.39,0,0,1-2.34.38v1c1.64-.09,4.1-.14,7.4-.14q3,0,6.2.1c.64,0,1.42,0,2.35,0,.61,0,1.2,0,1.78-.05v-1.7a7.09,7.09,0,0,1-3.17.65,5.49,5.49,0,0,1-2.14-.31,1.7,1.7,0,0,1-.93-1.13,9.66,9.66,0,0,1-.25-2.54V17.43h2q4.13,0,6.05,2a7,7,0,0,1,1.82,4.14c1.77,0,3.36-.05,4.77-.12l2.44,5.89a8.68,8.68,0,0,0,.87-4A7.17,7.17,0,0,0,59.71,19.68Zm-13-3.07H44.67V5.76a10.21,10.21,0,0,1,.25-2.59A1.83,1.83,0,0,1,45.76,2a4.17,4.17,0,0,1,1.89-.33,3.92,3.92,0,0,1,3.58,1.78,10.2,10.2,0,0,1,1.13,5.37,11.28,11.28,0,0,1-1.25,5.7A4.65,4.65,0,0,1,46.74,16.61Zm5.52,15.6v2.32A19.8,19.8,0,0,0,55.37,34l-1.59-3.81A5.46,5.46,0,0,1,52.26,32.21Z"/><path class="cls-1" d="M76.65,29.65l-1.56,4.08a15.69,15.69,0,0,0,2.49.91V31.15A10,10,0,0,1,76.65,29.65Zm22.6-6.12a21.21,21.21,0,0,0,.85-6.15A19.31,19.31,0,0,0,98,8.05a14.45,14.45,0,0,0-5.93-6A18.45,18.45,0,0,0,83.14,0a17.21,17.21,0,0,0-8.81,2.25,15.73,15.73,0,0,0-6,6.34A19.65,19.65,0,0,0,66.15,18a19.44,19.44,0,0,0,2.11,9.35,14.59,14.59,0,0,0,5.91,6L76,28.39h0c-.25-.57-.48-1.18-.69-1.82a28.59,28.59,0,0,1-1.22-8.79A32.54,32.54,0,0,1,75.2,9a14,14,0,0,1,3.1-6A6.23,6.23,0,0,1,83,.86a6.48,6.48,0,0,1,4.63,2.06,14.34,14.34,0,0,1,3.32,5.86,28.59,28.59,0,0,1,1.22,8.79,32.48,32.48,0,0,1-1.08,8.79,14.12,14.12,0,0,1-3.1,6,6.82,6.82,0,0,1-2.74,1.83v1.07a16.61,16.61,0,0,0,6.71-2.15,15,15,0,0,0,3.72-3V28.5a9.8,9.8,0,0,0-.26-2.64,1.73,1.73,0,0,0-1-1.1A8.61,8.61,0,0,0,92,24.37v-.95Q94.86,23.49,99.25,23.53Z"/><path class="cls-1" d="M110.34.81c-3.37,0-5.86-.05-7.49-.14v1a8.29,8.29,0,0,1,2.32.38,1.65,1.65,0,0,1,1,1.11,9.31,9.31,0,0,1,.26,2.64V20.85c0,1,0,1.87.08,2.71h1.18c2.51,0,4.65,0,6.38,0V5.76a8.73,8.73,0,0,1,.29-2.64A1.73,1.73,0,0,1,115.45,2,9.54,9.54,0,0,1,118,1.63v-1Q115.33.81,110.34.81ZM130,.81c-2.24,0-4-.05-5.18-.14v1a7.58,7.58,0,0,1,3,.84,3.07,3.07,0,0,1,1.3,1.94,18.82,18.82,0,0,1,.34,4.14V21.22c0,4-.66,7.05-2,9.21s-3.57,3.23-6.77,3.23a7.17,7.17,0,0,1-3.24-.65c0,.29,0,.55.07.79h-1.1c-.09-.63-.19-1.21-.3-1.76h0a3.84,3.84,0,0,1-.59-.74,10.58,10.58,0,0,1-1.28-4.17c-.14-.19-.28-.37-.42-.53a6.79,6.79,0,0,0-5.3-2.07h-2a21.53,21.53,0,0,0,.63,3.94,8.58,8.58,0,0,0,3,4.49,9.21,9.21,0,0,0,.79.55,6.27,6.27,0,0,0,.62.36,15.52,15.52,0,0,0,7.23,1.49,13.68,13.68,0,0,0,6-1.18,8.57,8.57,0,0,0,3.75-3.29q2-3.31,2-10.19V8a19,19,0,0,1,.26-3.7,3,3,0,0,1,1-1.83,5.15,5.15,0,0,1,2.33-.81v-1C133.16.76,131.78.81,130,.81Z"/><path class="cls-1" d="M165.53,8.83a35.79,35.79,0,0,0,.14,3.65h-1.1q-1.15-5.89-3.15-8.31A6.71,6.71,0,0,0,156,1.77h-1.11V29.2a7.72,7.72,0,0,0,.41,2.93,2.18,2.18,0,0,0,1.44,1.23,13.92,13.92,0,0,0,3.29.35v1c-4-.1-7.08-.15-9.12-.15s-4.95,0-8.79.15v-1a13.92,13.92,0,0,0,3.29-.35,2.23,2.23,0,0,0,1.44-1.23,7.72,7.72,0,0,0,.41-2.93V1.77h-1.06a7.28,7.28,0,0,0-3.92,1,8,8,0,0,0-2.76,3.34,26.74,26.74,0,0,0-2,6.36h-1.1c.09-.92.14-2.14.14-3.65q0-3.6-.33-8.16,4.36.13,14.84.14T165.86.67Q165.53,5.23,165.53,8.83Z"/><path class="cls-2" d="M53.8,55.62a2.83,2.83,0,0,1-1.25-1.92,21.6,21.6,0,0,1-.29-4.15v-15c-.36,0-.72.07-1.1.09v15.5a19.85,19.85,0,0,1-.26,3.7,3,3,0,0,1-1,1.83,5.08,5.08,0,0,1-2.33.81v1c1-.09,2.41-.14,4.17-.14,2.21,0,3.94,0,5.19.14v-1A7.62,7.62,0,0,1,53.8,55.62Zm.76-32.08-2.83,0c-1.76,0-3.15,0-4.17-.14v.95a8.69,8.69,0,0,1,2.33.39,1.73,1.73,0,0,1,1,1.1,9.8,9.8,0,0,1,.26,2.64v4.42a4.23,4.23,0,0,0,1.1-.71V26.54l1.52,3.61a11.87,11.87,0,0,0,.89-5A11.94,11.94,0,0,0,54.56,23.54Zm26.72,0H77.86L76,28.38h0a11.35,11.35,0,0,0,.62,1.26l.93-2.44v3.94a9.69,9.69,0,0,0,1.07,1.27,6.48,6.48,0,0,0,4.64,2.06,5.81,5.81,0,0,0,1.92-.31V28.5a9.8,9.8,0,0,1,.26-2.64,1.73,1.73,0,0,1,1-1.1,8.58,8.58,0,0,1,2.36-.39v-.95C87.06,23.51,84.54,23.56,81.28,23.56Zm-7.11,9.72L69,46.81l-7.25-17.5a8,8,0,0,1-2.64,2.94A12.86,12.86,0,0,1,55.37,34l9.86,23.51H66l9.09-23.74c-.3-.13-.6-.28-.9-.44Zm12.31,22.8a1.68,1.68,0,0,1-1-1.11,9.65,9.65,0,0,1-.26-2.64V35.24a20.83,20.83,0,0,1-2.11.11,20.15,20.15,0,0,1-5.52-.71V52.33A8.68,8.68,0,0,1,77.29,55a1.71,1.71,0,0,1-1.08,1.11,9.56,9.56,0,0,1-2.53.38v1q2.46-.14,7.6-.14c3.26,0,5.78,0,7.54.14v-1A8.39,8.39,0,0,1,86.48,56.08Z"/><path class="cls-3" d="M76.65,29.65l-1.56,4.08c-.3-.13-.6-.28-.9-.44h0L76,28.39A11.35,11.35,0,0,0,76.65,29.65Z"/><path class="cls-3" d="M85.21,34.17v1.07a20.83,20.83,0,0,1-2.11.11,20.15,20.15,0,0,1-5.52-.71V31.15a9.69,9.69,0,0,0,1.07,1.27,6.48,6.48,0,0,0,4.64,2.06A5.81,5.81,0,0,0,85.21,34.17Z"/><path class="cls-3" d="M52.26,32.21v2.32c-.36,0-.72.07-1.1.09v-1.7A4.23,4.23,0,0,0,52.26,32.21Z"/><path class="cls-3" d="M61.77,29.31a8,8,0,0,1-2.64,2.94A12.86,12.86,0,0,1,55.37,34l-1.59-3.81a11.87,11.87,0,0,0,.89-5,11.94,11.94,0,0,0-.11-1.63c1.77,0,3.36-.05,4.77-.12Z"/><path class="cls-2" d="M117.73,23.42c-.92,0-2.13.08-3.65.09v.35a26.65,26.65,0,0,0,.19,3.26A12.94,12.94,0,0,1,116.14,32h0a4.19,4.19,0,0,0,1.33,1c0-.67-.07-1.5-.07-2.49Q117.4,27.42,117.73,23.42Zm.62,26.7c0-1.63.05-3,.16-4H117.4c-.58,3.71-1.56,6.34-3,7.9a7,7,0,0,1-5.5,2.33h-2.35a7,7,0,0,1-2.16-.24,1.43,1.43,0,0,1-.91-.94,7.38,7.38,0,0,1-.25-2.23V40.8h1.54q4.84,0,5.87,6.34h1.1c-.2-2.91-.29-5.19-.29-6.82V38c0-1.52,0-2.9.12-4.16,0-.12,0-.23,0-.36h-1.1A11.7,11.7,0,0,1,108.68,38a4.43,4.43,0,0,1-3.87,1.87h-1.54V27.93a7.5,7.5,0,0,1,.25-2.24,1.43,1.43,0,0,1,.91-.93,6.94,6.94,0,0,1,2.15-.24q0-.46-.06-1-4,0-7.27,0a17.52,17.52,0,0,1-1.31,3.22,15.67,15.67,0,0,1-2.3,3.3V52.33A9.65,9.65,0,0,1,95.38,55a1.68,1.68,0,0,1-1,1.11,8.31,8.31,0,0,1-2.33.38v1c3.45-.09,8.68-.14,15.66-.14,5.15,0,8.82,0,11,.14A65.83,65.83,0,0,1,118.35,50.12Z"/><path class="cls-3" d="M117.54,33.8h-1.1c-.09-.63-.19-1.21-.3-1.76a4.19,4.19,0,0,0,1.33,1C117.49,33.3,117.51,33.56,117.54,33.8Z"/><path class="cls-3" d="M114.27,27.12c-.14-.19-.28-.37-.42-.53a6.79,6.79,0,0,0-5.3-2.07h-2q0-.46-.06-1h1.18c2.51,0,4.65,0,6.38,0v.35A26.65,26.65,0,0,0,114.27,27.12Z"/><path class="cls-3" d="M99.25,23.53a17.52,17.52,0,0,1-1.31,3.22,15.67,15.67,0,0,1-2.3,3.3V28.5a9.8,9.8,0,0,0-.26-2.64,1.73,1.73,0,0,0-1-1.1A8.61,8.61,0,0,0,92,24.37v-.95Q94.86,23.49,99.25,23.53Z"/></svg>