<svg id="Layer_1" data-name="Layer 1" xmlns="http://www.w3.org/2000/svg" viewBox="0 0 453.05 64.91"><defs><style>.cls-1{fill:#ff5b38;}.cls-2{fill:#fff;}</style></defs><rect class="cls-1" x="114.45" y="40.75" width="10.26" height="1"/><rect class="cls-1" x="-0.11" y="40.75" width="114.55" height="1"/><polygon class="cls-1" points="181.87 40.75 182.22 41.75 124.7 41.75 124.7 40.75 181.87 40.75"/><polygon class="cls-1" points="207.06 40.75 207.43 41.75 192.66 41.75 192.34 40.75 207.06 40.75"/><path class="cls-1" d="M238.77,40.75l0,1H217.59l-.35-1Z"/><path class="cls-1" d="M288.56,40.75v1h-39c0-.34,0-.67,0-1Z"/><path class="cls-1" d="M372.81,41.7l.06,0h-74v-1h72.91C372.08,41.08,372.43,41.39,372.81,41.7Z"/><path class="cls-1" d="M452.8,40.75v1H390.41c-.4-.34-.82-.67-1.25-1Z"/><path class="cls-2" d="M82.19,5.86,102,56.93a9.89,9.89,0,0,0,2.65,4,5,5,0,0,0,2.65,1.18v1.63c-1.41-.11-3.11-.18-5.09-.2s-4,0-6.07,0c-2.39,0-4.61,0-6.68,0s-3.74.09-5,.2V62.14q4.15-.16,5.3-1.42c.76-.85.59-2.65-.49-5.42L74.86,16.61l1.47-1.79-13,33.8c-1.41,3.59-2.09,6.34-2,8.27a4.5,4.5,0,0,0,2,4,10.67,10.67,0,0,0,5.29,1.22v1.63c-1.74-.11-3.42-.18-5.05-.2s-3.25,0-4.88,0c-1.2,0-2.32,0-3.38,0a24.52,24.52,0,0,0-2.81.2V62.14A7.6,7.6,0,0,0,55.93,60a17,17,0,0,0,3.38-5.94L78,5.86c.65.06,1.36.09,2.12.09S81.54,5.92,82.19,5.86Zm7.09,34.45v1.63H65l.81-1.63Z"/><path class="cls-2" d="M142.62,24.27a6.64,6.64,0,0,0-2.48-2.69A7.78,7.78,0,0,0,136,20.52a9.73,9.73,0,0,0-4.85,1.27A13.36,13.36,0,0,0,127.27,25a18.26,18.26,0,0,0-2.57,4.24V20.77a36.08,36.08,0,0,1-5,.85,52.8,52.8,0,0,1-5.75.29c-1.62,0-3.31-.08-5-.24v1.71q3.16,0,4.36,1.75a9.8,9.8,0,0,1,1.18,5.41V40.75H124.7V35.27a13.89,13.89,0,0,1,1.11-5.17,14.34,14.34,0,0,1,3.06-4.73,7.1,7.1,0,0,1,4.56-2.24,3.13,3.13,0,0,1,2,.33,8.27,8.27,0,0,0-2.31,2.2,5.53,5.53,0,0,0-1,3.42,4.46,4.46,0,0,0,1.54,3.58,6,6,0,0,0,4,1.3,5.3,5.3,0,0,0,4.19-1.79,6.49,6.49,0,0,0,1.58-4.48A7.61,7.61,0,0,0,142.62,24.27ZM124.7,55.38V41.75H114.45V56.2c0,2.28-.43,3.82-1.27,4.64s-2.27,1.22-4.27,1.22v1.71l4.69-.2c2.08-.08,4.19-.13,6.31-.13,2.54,0,5,.05,7.36.13l5.41.2V62.06a10.85,10.85,0,0,1-5.93-1.34C125.39,59.82,124.7,58,124.7,55.38Z"/><path class="cls-2" d="M161.68,8.31V21.75h10.43v1.62H161.68V55.79c0,2,.35,3.34,1.06,4.15a3.76,3.76,0,0,0,3,1.22,5,5,0,0,0,3.43-1.42A12.11,12.11,0,0,0,171.94,55l1.47.65a16,16,0,0,1-3.79,6.64,9.54,9.54,0,0,1-7.2,2.65,13.94,13.94,0,0,1-4.69-.69,8.48,8.48,0,0,1-5.7-6.48,31.22,31.22,0,0,1-.61-6.92V23.37h-7.17V21.75h7.17V10.42a32.8,32.8,0,0,0,5.46-.57A20.7,20.7,0,0,0,161.68,8.31Z"/><path class="cls-2" d="M189.85,23.66a17,17,0,0,1,3.35-.28V21.67L188,22c-1.87.11-3.65.16-5.33.16-2,0-3.75,0-5.38-.12s-3.2-.2-4.72-.36v1.71a4.92,4.92,0,0,1,2.16.65q1.26.64,2.56,3.91l4.63,12.81h10.48l-4-12c-.54-1.79-.67-3-.37-3.75A2.36,2.36,0,0,1,189.85,23.66Zm16-2.13-.06,0-6.19,19.25-.33,1L196,52l-3.36-10.21H182.22L190.27,64c.64-.05,1.32-.08,2-.08s1.33,0,2,.08l7.09-22.26.31-1L204.14,33l3.4-10.65Zm27.71.38c-1.15.05-2.29.08-3.42.08-.77,0-1.58,0-2.46,0l-2.67-.12-2.7-.16v1.71c2.77.21,4.65,1.16,5.62,2.85s.88,4.45-.33,8.3l-2,6.22-.33,1-3.69,11.49-4-11.49H207.43L215.76,64c.71-.05,1.38-.08,2-.08s1.3,0,1.95.08l7.3-22.26.32-1L230.91,30a11.63,11.63,0,0,1,2.56-4.92,6.17,6.17,0,0,1,3-1.67V21.67C235.68,21.77,234.74,21.86,233.6,21.91Zm-23.13-.41c-.77.06-1.52.08-2.29.08s-1.52,0-2.27-.08l0,0L203.79,32l.35,1,2.92,7.78h10.18Z"/><polygon class="cls-1" points="217.59 41.75 207.43 41.75 207.06 40.75 217.24 40.75 217.59 41.75"/><polygon class="cls-1" points="192.66 41.75 182.22 41.75 181.87 40.75 192.34 40.75 192.66 41.75"/><path class="cls-2" d="M277.64,41.75c0-.33,0-.67,0-1a26,26,0,0,0-2.53-10.86,16.16,16.16,0,0,0-6.93-7.13,21.51,21.51,0,0,0-10-2.24,21.74,21.74,0,0,0-10,2.24,15.84,15.84,0,0,0-6.92,7.13,25.89,25.89,0,0,0-2.49,10.86h10.82Q249.79,31.39,252,27q2.42-4.84,6.23-4.85c2.5,0,4.58,1.62,6.19,4.85q2.22,4.38,2.43,13.75c0,.33,0,.66,0,1s0,.67,0,1q0,10.92-2.46,15.72c-1.61,3.2-3.69,4.8-6.19,4.8s-4.62-1.6-6.23-4.8-2.39-8.44-2.39-15.72v-1H238.74c0,.34,0,.67,0,1q0,8,2.54,12.87a15.57,15.57,0,0,0,6.92,7.08,22,22,0,0,0,10,2.2,21.75,21.75,0,0,0,10-2.2,15.89,15.89,0,0,0,6.93-7.08q2.57-4.89,2.57-12.87C277.66,42.42,277.66,42.09,277.64,41.75Z"/><path class="cls-1" d="M249.59,40.75c0,.33,0,.66,0,1H238.74l0-1Z"/><path class="cls-2" d="M316.75,24.27a6.93,6.93,0,0,0-2.48-2.69,7.8,7.8,0,0,0-4.21-1.06,9.75,9.75,0,0,0-4.84,1.27A13.22,13.22,0,0,0,301.39,25a17.88,17.88,0,0,0-2.56,4.24V20.77a36.13,36.13,0,0,1-5,.85,52.16,52.16,0,0,1-5.73.29c-1.63,0-3.31-.08-5.06-.24v1.71q3.18,0,4.37,1.75a9.81,9.81,0,0,1,1.17,5.41V40.75h10.27V35.27a13.86,13.86,0,0,1,1.1-5.17A14.19,14.19,0,0,1,303,25.37a7.15,7.15,0,0,1,4.56-2.24,3.14,3.14,0,0,1,2,.33,8.31,8.31,0,0,0-2.32,2.2,5.6,5.6,0,0,0-1,3.42,4.44,4.44,0,0,0,1.55,3.58,5.92,5.92,0,0,0,4,1.3,5.31,5.31,0,0,0,4.2-1.79,6.45,6.45,0,0,0,1.59-4.48A7.61,7.61,0,0,0,316.75,24.27ZM298.83,55.38V41.75H288.56V56.2c0,2.28-.42,3.82-1.25,4.64S285,62.06,283,62.06v1.71l4.7-.2c2.09-.08,4.19-.13,6.3-.13,2.56,0,5,.05,7.37.13l5.42.2V62.06a10.84,10.84,0,0,1-5.94-1.34Q298.83,59.37,298.83,55.38Z"/><rect class="cls-1" x="288.56" y="40.75" width="10.26" height="1"/><path class="cls-2" d="M333.69,0V56.2c0,2.28.38,3.82,1.14,4.64s2.06,1.22,3.91,1.22v1.71l-4.24-.2c-1.9-.09-3.83-.13-5.78-.13s-4.06,0-6.15.13l-4.68.2V62.06c2,0,3.43-.41,4.27-1.22s1.27-2.36,1.27-4.64V9.77a9.79,9.79,0,0,0-1.19-5.41q-1.17-1.76-4.35-1.75V.9c1.73.16,3.42.24,5.05.24a55,55,0,0,0,5.78-.28A36.36,36.36,0,0,0,333.69,0Zm26.38,21.66v1.63a15.4,15.4,0,0,0-4.72,1.83,20.64,20.64,0,0,0-4.48,3.71l-8.06,8.39.89-1.79L358,57.82a25,25,0,0,0,2.16,2.73,5.16,5.16,0,0,0,2.56,1.51v1.71c-.7-.05-1.82-.12-3.34-.2s-3-.13-4.56-.13c-1.84,0-3.73,0-5.66.13l-4.35.2V62.06a2.71,2.71,0,0,0,2.23-.77c.41-.52.34-1.19-.2-2L338.41,45a6.17,6.17,0,0,0-2.2-2.32,6.3,6.3,0,0,0-2.85-.53V40.56a11,11,0,0,0,3.38-.73,8.14,8.14,0,0,0,2.57-1.8l6.11-6.1q2.68-2.7,2.72-4.56a3.1,3.1,0,0,0-1.71-2.9,10.22,10.22,0,0,0-4.52-1.18V21.66l4.89.21q2.68.12,4.56.12c1,0,2,0,3.14,0s2.17-.07,3.17-.12S359.48,21.72,360.07,21.66Z"/><path class="cls-2" d="M394.08,45.08a40.34,40.34,0,0,0-3.67-3.33H372.87c1.6,1.28,3.29,2.6,5.13,3.94a61.11,61.11,0,0,1,6.1,5.05,8,8,0,0,1,2.45,5.94q0,3.51-2,5a7.17,7.17,0,0,1-4.24,1.47,8.85,8.85,0,0,1-5.86-1.91,11.83,11.83,0,0,1-3.46-5.3,38.5,38.5,0,0,1-1.75-7.86h-1.79c0,4.13,0,7.44-.08,9.94s-.15,4.61-.25,6.35h1.79a5.38,5.38,0,0,1,.94-2.44,1.07,1.07,0,0,1,1.43-.33,12,12,0,0,1,1.75.82c.57.32,1.19.68,1.9,1a14.91,14.91,0,0,0,3.19,1.06,18,18,0,0,0,4,.41,19.22,19.22,0,0,0,7.46-1.42A13.33,13.33,0,0,0,395,59.41,10,10,0,0,0,397.05,53,10.91,10.91,0,0,0,394.08,45.08Zm-22.34-4.33h17.42Q388,39.88,386.79,39q-2.54-1.87-4.84-3.46a17.18,17.18,0,0,1-3.79-3.42,6.65,6.65,0,0,1-1.48-4.28,5.28,5.28,0,0,1,1.67-4.15,6.15,6.15,0,0,1,4.21-1.46,8.47,8.47,0,0,1,5.78,1.91,12.3,12.3,0,0,1,3.34,4.76,25,25,0,0,1,1.54,5.87H395c0-3.59,0-6.45.08-8.6s.12-4,.24-5.57h-1.79c-.39,3.09-1.49,4-3.35,2.6a21.38,21.38,0,0,0-3.58-1.71,15.7,15.7,0,0,0-5.85-1,17.13,17.13,0,0,0-6.57,1.27,11.82,11.82,0,0,0-4.93,3.66,9.57,9.57,0,0,0-1.86,6.07,10.82,10.82,0,0,0,1.5,5.78A17,17,0,0,0,371.74,40.75Z"/><path class="cls-1" d="M390.41,41.75H372.87l-.06,0c-.38-.31-.73-.62-1.07-1h17.42C389.59,41.08,390,41.41,390.41,41.75Z"/></svg>