<svg id="Layer_1" data-name="Layer 1" xmlns="http://www.w3.org/2000/svg" viewBox="0 0 295.01 98.92"><defs><style>.cls-1{fill:#fff;}.cls-2{fill:none;}.cls-2,.cls-3{stroke:#ff5b38;stroke-miterlimit:10;}.cls-3{fill:#ff5b38;}</style></defs><path class="cls-1" d="M28.53,0a21.76,21.76,0,0,1,9.06,1.63,31,31,0,0,1,6.29,3.79c1.12.84,2,.94,2.55.29s1-2.15,1.21-4.54h1.92c-.11,2.11-.2,4.7-.25,7.76S49.22,16,49.22,21H47.31q-.51-3.75-1.09-6.29a15.94,15.94,0,0,0-1.63-4.38,14.34,14.34,0,0,0-2.87-3.51,14,14,0,0,0-5.39-3.71,17.9,17.9,0,0,0-6.54-1.21,12.68,12.68,0,0,0-7.56,2.29,18,18,0,0,0-5.34,6.26,33.43,33.43,0,0,0-3.17,9.22,57.77,57.77,0,0,0-1,11.18,53.49,53.49,0,0,0,1.13,11.3,32,32,0,0,0,3.33,9.1,17.49,17.49,0,0,0,5.51,6,13.62,13.62,0,0,0,7.64,2.17,18.71,18.71,0,0,0,6.34-1.17A12.54,12.54,0,0,0,42,54.73a12.79,12.79,0,0,0,3.75-6,54,54,0,0,0,1.59-9.22h1.91q0,7.85.09,12.64c0,3.2.14,5.88.25,8.05H47.64c-.22-2.39-.6-3.9-1.13-4.51s-1.4-.53-2.63.25a43.34,43.34,0,0,1-6.55,3.8,21,21,0,0,1-8.88,1.63,30.13,30.13,0,0,1-14.93-3.59,24.6,24.6,0,0,1-10-10.35A34.53,34.53,0,0,1,0,31.2,34.7,34.7,0,0,1,3.67,14.85,27.43,27.43,0,0,1,13.77,3.92,27.78,27.78,0,0,1,28.53,0Z"/><path class="cls-1" d="M94.61,40.48a13.13,13.13,0,0,0-4.13-.63V38.18c.89.06,2,.12,3.38.17s2.68.08,4,.08q0-8-2.63-12.9a16.59,16.59,0,0,0-7.09-7.3,22,22,0,0,0-10.22-2.29,22.26,22.26,0,0,0-10.26,2.29,16.3,16.3,0,0,0-7.1,7.3Q58,30.54,58,38.72T60.57,51.9a16,16,0,0,0,7.1,7.26,22.64,22.64,0,0,0,10.26,2.25,22.41,22.41,0,0,0,10.22-2.25,16.29,16.29,0,0,0,7.09-7.26,20.63,20.63,0,0,0,1.67-4.49V47a16.65,16.65,0,0,0-.46-4.55A3,3,0,0,0,94.61,40.48ZM84.27,54.82q-2.51,4.92-6.34,4.92c-2.62,0-4.74-1.64-6.38-4.92s-2.47-8.65-2.47-16.1.82-12.84,2.47-16.15,3.76-5,6.38-5,4.67,1.65,6.34,5,2.5,8.69,2.5,16.15S85.94,51.54,84.27,54.82Z"/><path class="cls-1" d="M104.9,58.39a10.44,10.44,0,0,1-1.53.1v1.75l2.24-.1Zm39.65-35.11a9,9,0,0,0-2.13-4.09A10.27,10.27,0,0,0,139,16.86a14.47,14.47,0,0,0-5.63-.92,17,17,0,0,0-8,1.92,13,13,0,0,0-5.76,6.67V16.19a37.94,37.94,0,0,1-5.13.88,58.17,58.17,0,0,1-5.88.29c-1.67,0-3.4-.09-5.18-.25v1.75q3.25,0,4.47,1.79a10.15,10.15,0,0,1,1.21,5.55v12h0L117.81,60c.78,0,1.56,0,2.33.07l4.26.21V58.49a4.8,4.8,0,0,1-3.76-1.25c-.72-.84-1.08-2.42-1.08-4.76V30.79a12.65,12.65,0,0,1,2.67-8.22A8.35,8.35,0,0,1,129,19.28a5.48,5.48,0,0,1,3.58,1,5,5,0,0,1,1.67,2.84,17.72,17.72,0,0,1,.42,4V52.48c0,2.34-.36,3.92-1.08,4.76a4.8,4.8,0,0,1-3.76,1.25v1.75l4.34-.21h.3l8.17-21.59h2.54V30A29.45,29.45,0,0,0,144.55,23.28Zm-4.38,36.63,2.12,0V44.66L136.47,60C137.68,59.92,138.92,59.91,140.17,59.91Z"/><path class="cls-1" d="M180.38,51.23a19.26,19.26,0,0,1-1,2.42,17.75,17.75,0,0,1,2.1-.44c.16-.42.31-.86.45-1.31Zm-10.51.84V18.86h10.68V17.19H169.87V3.42A20.81,20.81,0,0,1,165,5a34.39,34.39,0,0,1-5.59.58v11.6H152v1.67h7.35V47a32.15,32.15,0,0,0,.62,7.09,9.78,9.78,0,0,0,2.46,4.59,9.62,9.62,0,0,0,3.38,2,12.52,12.52,0,0,0,3,.63,17.92,17.92,0,0,1,3.53-4,3.51,3.51,0,0,1-1.38-1C170.23,55.49,169.87,54.07,169.87,52.07Z"/><path class="cls-1" d="M222.76,56.32q-.75.59-1.5,1.08a3,3,0,0,1-1.75.51,1.69,1.69,0,0,1-1.63-.88,6.78,6.78,0,0,1-.46-3V31.21a35,35,0,0,0-.58-6.93,8.87,8.87,0,0,0-2.59-4.75,10.8,10.8,0,0,0-4.84-2.8,24.18,24.18,0,0,0-6.51-.79,28.85,28.85,0,0,0-7.09.83A16.94,16.94,0,0,0,190.47,19a11.2,11.2,0,0,0-3.25,2.79,6.24,6.24,0,0,0-1.17,3.88,6.29,6.29,0,0,0,1.42,4.09,5.05,5.05,0,0,0,4.17,1.75,6.42,6.42,0,0,0,4.3-1.46,5,5,0,0,0,1.71-4,6.15,6.15,0,0,0-1.21-3.83A6.08,6.08,0,0,0,193.06,20a6.14,6.14,0,0,1,3.17-1.92,14.25,14.25,0,0,1,3.67-.5,7.82,7.82,0,0,1,3.88.87,5.63,5.63,0,0,1,2.34,2.59,10.59,10.59,0,0,1,.79,4.38v6.09a3.72,3.72,0,0,1-1.67,3.13A17.69,17.69,0,0,1,201,36.84c-1.73.64-3.56,1.31-5.51,2a40.94,40.94,0,0,0-5.55,2.46A12.77,12.77,0,0,0,185.64,45a9.59,9.59,0,0,0-1.67,5.8,13.48,13.48,0,0,0,.17,2.15h.7q7.35,0,11.52,4.42a12,12,0,0,1,2,3,14.43,14.43,0,0,0,3.16-1.17A13.82,13.82,0,0,0,207,53.82a8.42,8.42,0,0,0,1.67,4.88q1.59,2.13,6.34,2.13a12.48,12.48,0,0,0,4.84-.84,16.7,16.7,0,0,0,3.84-2.25Zm-15.85-4.51a9.91,9.91,0,0,1-3.25,3.34,7.15,7.15,0,0,1-3.59,1,5.49,5.49,0,0,1-4.13-1.67q-1.63-1.66-1.63-5.25a9.56,9.56,0,0,1,1.54-5.76,13,13,0,0,1,3.68-3.38c1.41-.86,2.82-1.65,4.21-2.37A8.14,8.14,0,0,0,206.91,35Zm-22.34,2.9a9.63,9.63,0,0,0,1.9,3.28,7.64,7.64,0,0,0,3.32,2.15,11.83,11.83,0,0,0-1.57-3.35A4.41,4.41,0,0,0,184.57,54.71Z"/><path class="cls-1" d="M247.45,15.94a22,22,0,0,1,5.72.7,15.85,15.85,0,0,1,4.54,2,9.56,9.56,0,0,1,3.17,3.12,7.68,7.68,0,0,1,1.17,4.13,6,6,0,0,1-1.67,4.43A5.65,5.65,0,0,1,256.21,32a6,6,0,0,1-4.21-1.5,5.19,5.19,0,0,1-1.63-4,5.77,5.77,0,0,1,1.42-4,6.72,6.72,0,0,1,3.42-2.08,5.48,5.48,0,0,0-2.33-1.8,8.57,8.57,0,0,0-3.51-.71,8.12,8.12,0,0,0-4.5,1.3A10.88,10.88,0,0,0,241.4,23a21.72,21.72,0,0,0-2.25,6.25,41.21,41.21,0,0,0-.79,8.55q0,6.76,1.63,10.68A11.35,11.35,0,0,0,244.2,54a10.12,10.12,0,0,0,5.51,1.63,13.62,13.62,0,0,0,5.75-1.5c2.12-1,4-3,5.51-5.93l1.58.59a21.6,21.6,0,0,1-3,5.84,16.8,16.8,0,0,1-5.3,4.84,15.34,15.34,0,0,1-7.92,1.92,19.28,19.28,0,0,1-9.68-2.47,17.29,17.29,0,0,1-6.88-7.46,27.22,27.22,0,0,1-2.55-12.43,27.41,27.41,0,0,1,2.59-12.48,18.65,18.65,0,0,1,7.22-7.88A19.84,19.84,0,0,1,247.45,15.94Z"/><path class="cls-1" d="M283,3.42V17.19h10.68v1.67H283v33.2c0,2,.36,3.42,1.09,4.26a3.87,3.87,0,0,0,3.09,1.25,5.09,5.09,0,0,0,3.5-1.46,12.65,12.65,0,0,0,2.84-4.88l1.5.66a16.54,16.54,0,0,1-3.88,6.8,9.8,9.8,0,0,1-7.39,2.72A14.19,14.19,0,0,1,279,60.7a8.69,8.69,0,0,1-5.84-6.64,32,32,0,0,1-.63-7.09V18.86h-7.34V17.19h7.34V5.59A34.27,34.27,0,0,0,278.07,5,21.61,21.61,0,0,0,283,3.42Z"/><path class="cls-2" d="M103.92,38.35c-2,.06-4,.08-6,.08h0v.29a35.36,35.36,0,0,1-1,8.69V85.57a28.58,28.58,0,0,1-.46,5.76,4.6,4.6,0,0,1-1.84,3,9.65,9.65,0,0,1-4.13,1.25v1.67c.89-.11,2-.18,3.38-.21s2.71,0,4,0c1.5,0,3.09,0,4.75,0s3,.1,4.09.21V95.58a13.68,13.68,0,0,1-5.21-1.29,4.58,4.58,0,0,1-2.21-3.17,29.33,29.33,0,0,1-.5-6.22V43.52l6.07,14.87a4.87,4.87,0,0,0,2.85-1.15c.87-.84,1.3-2.42,1.3-4.76V38.18C107.56,38.24,105.84,38.3,103.92,38.35Zm50.26,4.13a3,3,0,0,1,1.88-2,11.87,11.87,0,0,1,3.3-.59l.79,0V38.18l-.79,0c-1.3,0-2.88.1-4.72.14-2.22.06-4.48.08-6.76.08h-2.71v14c0,2.34.43,3.92,1.3,4.76s2.32,1.25,4.38,1.25v1.75L146.22,60c-1.34-.05-2.65-.09-3.93-.1V88.41a15,15,0,0,1-.5,4.5,3,3,0,0,1-2,2,17.24,17.24,0,0,1-4.29.66v1.67c1.33-.11,3.1-.18,5.29-.21s4.55,0,7,0c2.28,0,4.54,0,6.76,0s4.06.1,5.51.21V95.58a15.51,15.51,0,0,1-4.05-.66,3,3,0,0,1-1.88-2,15.28,15.28,0,0,1-.5-4.5V47A16.65,16.65,0,0,1,154.18,42.48ZM134.46,60l-8.08,21.34L117.81,60c-1.13,0-2.27-.05-3.42-.05q-3.09,0-6.26.12l-2.52.11L120.85,97.5h1.34L136.47,60Q135.45,60,134.46,60Z"/><path class="cls-3" d="M150.85,58.49v1.75L146.22,60c-1.34-.05-2.65-.09-3.93-.1V44.66L136.47,60q-1,0-2,.06l8.17-21.59h2.54v14c0,2.34.43,3.92,1.3,4.76S148.79,58.49,150.85,58.49Z"/><path class="cls-3" d="M117.81,60c-1.13,0-2.27-.05-3.42-.05q-3.09,0-6.26.12l-2.52.11-.71-1.75a4.87,4.87,0,0,0,2.85-1.15c.87-.84,1.3-2.42,1.3-4.76V38.18h0Z"/><path class="cls-3" d="M97.87,38.43v.29a35.36,35.36,0,0,1-1,8.69V47a16.65,16.65,0,0,0-.46-4.55,3,3,0,0,0-1.84-2,13.13,13.13,0,0,0-4.13-.63V38.18c.89.06,2,.12,3.38.17S96.54,38.43,97.87,38.43Z"/><path class="cls-2" d="M174.58,55.66a16.47,16.47,0,0,0-2.25,1.62,4.79,4.79,0,0,0,1.71.29,5,5,0,0,0,3.5-1.46,8.89,8.89,0,0,0,1.79-2.46A18.59,18.59,0,0,0,174.58,55.66Zm19,35.54a13.64,13.64,0,0,1-6,1.46,9.91,9.91,0,0,1-5.51-1.75,12.3,12.3,0,0,1-4.34-5.51,23.53,23.53,0,0,1-1.67-9.51c0-.83,0-1.67,0-2.5a19.17,19.17,0,0,1,.15-1.92h24.25q0-6.87-2.12-11.1a16.15,16.15,0,0,1-3.93.46,14.31,14.31,0,0,1-4.69-.69,18.09,18.09,0,0,1,.56,2.2,33.12,33.12,0,0,1,.5,7.55h-14.8q.63-7.9,2.87-11.47c1.56-2.48,3.39-3.72,5.51-3.72h.14a10.91,10.91,0,0,1-.43-1.75,21.65,21.65,0,0,0-2.71.25A16,16,0,0,1,178,58.7q-2.62,2.71-7.38,2.71c-.64,0-1.25,0-1.82-.08a20,20,0,0,0-1.27,2.22A28.7,28.7,0,0,0,165,76.31a27.45,27.45,0,0,0,2.42,12.14,16.86,16.86,0,0,0,6.75,7.47,19.69,19.69,0,0,0,10,2.5A16.08,16.08,0,0,0,192,96.59a16.8,16.8,0,0,0,5.46-4.72,19.69,19.69,0,0,0,3.05-5.8l-1.59-.67C197.39,88.3,195.59,90.23,193.56,91.2Z"/><path class="cls-3" d="M198.41,60.37a16.15,16.15,0,0,1-3.93.46,14.31,14.31,0,0,1-4.69-.69,11.83,11.83,0,0,0-1.57-3.35,4.41,4.41,0,0,0-3.65-2.08,10.91,10.91,0,0,1-.43-1.75h.7q7.35,0,11.52,4.42A12,12,0,0,1,198.41,60.37Z"/><path class="cls-3" d="M181.43,53.21A16,16,0,0,1,178,58.7q-2.62,2.71-7.38,2.71c-.64,0-1.25,0-1.82-.08a17.92,17.92,0,0,1,3.53-4,4.79,4.79,0,0,0,1.71.29,5,5,0,0,0,3.5-1.46,8.89,8.89,0,0,0,1.79-2.46A17.75,17.75,0,0,1,181.43,53.21Z"/></svg>