<svg id="Layer_1" data-name="Layer 1" xmlns="http://www.w3.org/2000/svg" viewBox="0 0 720.06 61.27"><defs><style>.cls-1{fill:#ff5b38;}</style></defs><path class="cls-1" d="M718.08,32.84l-266.14.56L185.8,34,148.6,34l-18.6,0-10,0c-2.69,0-3.47.12-5.6,1.58-6.72,4.6-21.26,9-26-.77a11.55,11.55,0,0,1-1.06-4.35,60,60,0,0,0,9.62-11.37c.9-1.39-.42-2.87-1.8-3C87.7,15.68,83.72,22,83.39,28.72A57.77,57.77,0,0,1,45.81,42.89c-5.62,0-12.21-.71-16.69-3.91L70.59,3.69C72,2.46,70.64.38,69.09.31,57-.27,44-.68,33.07,5.48A26.12,26.12,0,0,0,19.9,28.25a17.7,17.7,0,0,0,3.24,10.6L.65,58c-2,1.67,1,4.41,2.9,2.76l22.36-19c10.53,8.49,32.23,5.09,43.36.4A62.49,62.49,0,0,0,83.8,33.54a13.33,13.33,0,0,0,3.88,7c6.12,5.5,15.48,4.85,22.58,1.88a34.85,34.85,0,0,0,5.32-2.76c2.54-1.62,4.35-1.58,7.36-1.58l17.17,0,140.22-.3,280.45-.59,157.39-.33C720.75,36.83,720.65,32.83,718.08,32.84Zm-694-1.93c-1.4-8.27,3-17.11,10.05-21.44C43,4,53.77,3.71,64,4.08L26.28,36.18A12.43,12.43,0,0,1,24.12,30.91Z"/></svg>