<svg id="Layer_1" data-name="Layer 1" xmlns="http://www.w3.org/2000/svg" viewBox="0 0 437.51 72.95"><defs><style>.cls-1{fill:#fff;}.cls-2{fill:none;stroke:#ff5b38;stroke-miterlimit:10;stroke-width:0.5px;}.cls-3{fill:#ff5b38;}</style></defs><path class="cls-1" d="M36.49.81Q32.93,1,24.51,1,12,1,5.82.81V2a10.11,10.11,0,0,1,2.78.46A2,2,0,0,1,9.8,3.73a11.29,11.29,0,0,1,.31,3.15V33.15a20.13,20.13,0,0,1,9.12-2.62v-9h1.84q5.79,0,7,7.57h1.32Q29,23.91,29,21V18.24c0-2,.05-3.79.17-5.39H27.89a14,14,0,0,1-2.21,5.33,5.29,5.29,0,0,1-4.61,2.24H19.23V6.2a8.91,8.91,0,0,1,.29-2.67,1.72,1.72,0,0,1,1.09-1.12,8.39,8.39,0,0,1,2.58-.28h2.35a8.12,8.12,0,0,1,6.31,2.46c1.49,1.65,2.52,4.51,3.09,8.6h1.32a34.68,34.68,0,0,1-.17-3.9Q36.09,5.57,36.49.81Zm.92,27.06H36.09a25,25,0,0,1-2,7.08,16.65,16.65,0,0,1,3.31,3.72q-.16-2.62-.16-6C37.24,30.74,37.29,29.13,37.41,27.87ZM29.29,39.54a9.58,9.58,0,0,1-3.29.54H23.19a8,8,0,0,1-2.58-.29,1.7,1.7,0,0,1-1.09-1.11A9,9,0,0,1,19.23,36v-4.4a7.6,7.6,0,0,0-4.47,2.48,16.84,16.84,0,0,0-3.7,7.13s0,.05,0,.08q5.43-.07,13.47-.07l5.38,0a2.58,2.58,0,0,0-.08-.26C29.65,40.49,29.47,40,29.29,39.54Z"/><path class="cls-1" d="M48.73,34.23a2,2,0,0,0-.25-.53c-2.79,3.56-5.44,5.74-8,6.55V41.4c1.23-.11,3-.17,5.28-.17H49V37.38A11.29,11.29,0,0,0,48.73,34.23Zm30,5.34a5.27,5.27,0,0,1-.64-.67,9.87,9.87,0,0,1,.29,2.43l2.18.07V40.2A3,3,0,0,1,78.69,39.57ZM65.44.81V2a5.81,5.81,0,0,1,3.1.92,2.64,2.64,0,0,1,1.09,2.24q0,2.23-2.7,5.79l-4.24,5.73L54.15,4.13A1.93,1.93,0,0,1,53.69,3c0-.38.29-.66.86-.83A10.87,10.87,0,0,1,57.36,2V.75C54.84.9,51.91,1,48.59,1Q47,1,41.53.81A8.9,8.9,0,0,0,40.39.75V2a3.1,3.1,0,0,1,1.83.61,10.54,10.54,0,0,1,1.84,2.26L56.44,23l-6.28,8.46H51.8c.25-.37.51-.75.8-1.14l4.59-6.25,5,7.28h.32q7.92,0,11.9,2.58a3.62,3.62,0,0,1,.32.22L63.44,17.72,70.72,8a23.08,23.08,0,0,1,3.52-3.89A10,10,0,0,1,77.94,2V.81C76.72.92,75,1,72.67,1Q68.71,1,65.44.81ZM62.93,32.53l3.89,5.72a1.8,1.8,0,0,1,.4,1c0,.38-.29.64-.86.78a14.89,14.89,0,0,1-2.92.2v1.2a9.72,9.72,0,0,0,1.2-.06l4.16-.1a11.71,11.71,0,0,0-1.64-6.38A5.58,5.58,0,0,0,62.93,32.53Z"/><path class="cls-1" d="M111.31,3.93Q107.24.87,99.5.86,98,.86,96.86.92L90.5,1Q84.71,1,81.78.81V2a10,10,0,0,1,2.78.46,2,2,0,0,1,1.21,1.32,11.29,11.29,0,0,1,.31,3.15V35.32a11.32,11.32,0,0,1-.31,3.16,1.94,1.94,0,0,1-1.21,1.31,9.67,9.67,0,0,1-2.78.46V41.4l1.84-.06,3.72-.08c.08-.17.17-.34.26-.5A19.08,19.08,0,0,1,95,33.2l.23-.13V25h3a22.34,22.34,0,0,0,10.12-1.95,12.36,12.36,0,0,0,5.42-4.84,12.31,12.31,0,0,0,1.6-6.05A9.8,9.8,0,0,0,111.31,3.93Zm-7.22,16.94q-1.78,3-6.43,3H95.2v-17a12,12,0,0,1,.29-3.09,2.18,2.18,0,0,1,1-1.43A4.78,4.78,0,0,1,98.75,2q3.84,0,5.48,2.64t1.63,8.2A15.77,15.77,0,0,1,104.09,20.87ZM97.17,39.66a15.82,15.82,0,0,0-.58,1.64l4.74.1V40.14a17.48,17.48,0,0,1-3.92-.4Z"/><path class="cls-1" d="M148.92.81q-3.55.17-12,.17Q124.45,1,118.25.81V2a10,10,0,0,1,2.78.46,2,2,0,0,1,1.2,1.32,11.2,11.2,0,0,1,.32,3.15V35.32a11.23,11.23,0,0,1-.32,3.16,2,2,0,0,1-1.2,1.31,5.89,5.89,0,0,1-.87.24c0,.43,0,.87,0,1.32q6.07-.12,16.79-.12h.5l.45-1.15h-2.27a8.07,8.07,0,0,1-2.58-.29A1.7,1.7,0,0,1,132,38.68a9,9,0,0,1-.29-2.67V21.56h1.84q5.79,0,7,7.57h1.32q-.34-5.22-.34-8.14V18.24c0-2,.06-3.79.17-5.39h-1.32a13.84,13.84,0,0,1-2.21,5.33,5.29,5.29,0,0,1-4.61,2.24h-1.84V6.2A8.91,8.91,0,0,1,132,3.53,1.72,1.72,0,0,1,133,2.41a8.44,8.44,0,0,1,2.58-.28H138a8.1,8.1,0,0,1,6.31,2.46c1.49,1.65,2.52,4.51,3.09,8.6h1.32a34.68,34.68,0,0,1-.17-3.9Q148.52,5.57,148.92.81Zm-9.75,39.25-.45,1.17h1l-.44-1.19Zm10.5-7.37c0-1.95.05-3.56.17-4.82h-1.32a26.07,26.07,0,0,1-1.86,6.8l2.6,6.7.81,0A77,77,0,0,1,149.67,32.69Z"/><path class="cls-1" d="M192.67,38.19a5.22,5.22,0,0,1-1.12,1,2.68,2.68,0,0,1-1.18.35,1.92,1.92,0,0,1-1.69-.92,9.9,9.9,0,0,1-1.06-3.21l-1.32-5.91A8.29,8.29,0,0,0,183,24.14c-1.69-1.18-4.25-1.93-7.69-2.23q6.89-.81,9.86-3.9a10,10,0,0,0,3-7.17,8.31,8.31,0,0,0-4-7.4q-4-2.58-11.9-2.58c-1,0-1.87,0-2.63.06L163.31,1q-5.79,0-8.71-.17V2a10.11,10.11,0,0,1,2.78.46,2,2,0,0,1,1.2,1.32,11.2,11.2,0,0,1,.32,3.15V35.32a11.23,11.23,0,0,1-.32,3.16,2,2,0,0,1-1.2,1.31,9.74,9.74,0,0,1-2.78.46V41.4q2.93-.16,9.06-.17l4,0V37.38a11.29,11.29,0,0,0-.31-3.15,2,2,0,0,0-1.21-1.32,10,10,0,0,0-2.78-.46V31.3c1.16.11,2.74.17,4.7.18V22.14h3.73a3.69,3.69,0,0,1,3.53,2,22,22,0,0,1,1.8,6.17l1,5.73a10.85,10.85,0,0,0,.49,1.91,5.91,5.91,0,0,0,2,2.88,5.16,5.16,0,0,0,.68.42,9.49,9.49,0,0,0,4.57,1,10.7,10.7,0,0,0,4.3-.77,9.59,9.59,0,0,0,3.32-2.55ZM170.48,21H168V6.88a12.43,12.43,0,0,1,.29-3.09,2.21,2.21,0,0,1,1-1.43A4.83,4.83,0,0,1,171.57,2c2.52,0,4.34.81,5.45,2.41s1.66,4,1.66,7.11a12.12,12.12,0,0,1-1.75,7Q175.18,21,170.48,21Zm-1.55,20.29.65,0-.65-.82Z"/><path class="cls-1" d="M195.41,40.15c-.34,0-.72.08-1.14.1V41.4l1.15-.06v-.63C195.42,40.52,195.42,40.33,195.41,40.15ZM203.33,1q-6.14,0-9.06-.17V2a10,10,0,0,1,2.78.46,2,2,0,0,1,1.21,1.32,11.29,11.29,0,0,1,.31,3.15V31.44c1,0,1.8-.07,2.47-.14v1.15a6.92,6.92,0,0,0-2.47.77v2.1a11.32,11.32,0,0,1-.31,3.16,1.94,1.94,0,0,1-1.21,1.31,2.26,2.26,0,0,1-.31.1V41.3c1.75,0,3.94-.07,6.59-.07,2.15,0,4,0,5.62.06v-1.6a2,2,0,0,1-.95-1.21,11.32,11.32,0,0,1-.31-3.16V33a2.1,2.1,0,0,0-.26-.13,10,10,0,0,0-2.78-.46V31.3c.82.05,1.84.09,3,.12V6.88A11.29,11.29,0,0,1,208,3.73a2,2,0,0,1,1.18-1.32A9.87,9.87,0,0,1,212,2V.81C209.92.92,207,1,203.33,1Z"/><path class="cls-1" d="M246.5.81q-3.56.17-12,.17Q222,1,215.83.81V2a10,10,0,0,1,2.78.46,2,2,0,0,1,1.21,1.32,11.69,11.69,0,0,1,.31,3.15V31.4c.83,0,1.58-.06,2.24-.1v1.15a14.54,14.54,0,0,0-2.24.28v2.59a11.72,11.72,0,0,1-.31,3.16,2,2,0,0,1-1.21,1.31,5,5,0,0,1-.54.17v1.39q3.78-.08,9.27-.1c0-.39,0-.8,0-1.23q0-3.84-.4-8.72c.65,0,1.42.06,2.3.08V21.56h1.83q5.79,0,7,7.57h1.31c-.22-3.48-.34-6.19-.34-8.14V18.24c0-2,.06-3.79.17-5.39H237.9a14,14,0,0,1-2.2,5.33,5.3,5.3,0,0,1-4.62,2.24h-1.83V6.2a9,9,0,0,1,.28-2.67,1.74,1.74,0,0,1,1.09-1.12,8.48,8.48,0,0,1,2.58-.28h2.35a8.09,8.09,0,0,1,6.31,2.46c1.49,1.65,2.52,4.51,3.1,8.6h1.32a32,32,0,0,1-.18-3.9C246.1,6.81,246.24,4,246.5.81Zm-.4,27.06a33,33,0,0,1-.74,3.6l1.9,0c0-1.4.07-2.6.16-3.58Zm-3.52,9.43A8.39,8.39,0,0,1,236,40.08H233.2a8.11,8.11,0,0,1-2.58-.29,1.7,1.7,0,0,1-.88-.69,15,15,0,0,0-.67,2.14h5.45c2.75,0,5.14,0,7.18,0l4.46-8.64H245A12.65,12.65,0,0,1,242.58,37.3Z"/><path class="cls-1" d="M285,1q-4,0-6.2-.17V2a9.44,9.44,0,0,1,3.73,1A3.43,3.43,0,0,1,284,5.25a25.67,25.67,0,0,1,.34,5v18L262.16.81c-1.38.11-3,.17-4.93.17-2.11,0-3.77-.06-5-.17V2a10.11,10.11,0,0,1,2.78.46,2,2,0,0,1,1.2,1.32,11.2,11.2,0,0,1,.32,3.15V32.69a22.89,22.89,0,0,1-.32,4.41,3.59,3.59,0,0,1-1.2,2.18,6.1,6.1,0,0,1-2.78,1V41.4c1.22-.11,2.88-.17,5-.17,2.63,0,4.7.06,6.19.17V40.25a9.25,9.25,0,0,1-3.73-1A3.43,3.43,0,0,1,258.2,37a25.67,25.67,0,0,1-.34-5V10l17.62,22.33.44-1.12c.42,0,1.09.06,2,.06s1.57,0,1.95-.06l4,10.28h.43l1.37,0v-32A22.82,22.82,0,0,1,286,5.11a3.57,3.57,0,0,1,1.2-2.18A6.21,6.21,0,0,1,290,2V.81C288.78.92,287.11,1,285,1Z"/><path class="cls-1" d="M328.21,27h-1.32c-.17,1.71-.38,3.19-.62,4.44l2,0C328.21,30,328.21,28.53,328.21,27ZM327.12,41.4h.3c-.16-.54-.33-1.06-.51-1.54C327,40.29,327.06,40.8,327.12,41.4ZM322.64,38a8.68,8.68,0,0,1-3.24,2.09,11.1,11.1,0,0,1-2.6.64,10.83,10.83,0,0,1-1.27.08,9,9,0,0,1-7.85-4.19,13.2,13.2,0,0,1-.86-1.43,21.21,21.21,0,0,1-1.12-2.57,7.7,7.7,0,0,0-6.57,4,16.84,16.84,0,0,0,4.16,3.15,19.33,19.33,0,0,0,4.39,1.7,24.38,24.38,0,0,0,6.25.76,19.79,19.79,0,0,0,2.87-.2,12.68,12.68,0,0,0,2.81-.74,24.53,24.53,0,0,0,4.93-2.78,2.43,2.43,0,0,1,1.2-.46.8.8,0,0,1,.51.19,12.22,12.22,0,0,0-1.46-2.51A8.58,8.58,0,0,1,322.64,38ZM327.12.81c-.23,2.29-.73,3.44-1.49,3.44a1.82,1.82,0,0,1-1.09-.52A20,20,0,0,0,319.83,1,15.54,15.54,0,0,0,314,0a20.42,20.42,0,0,0-10.52,2.7,18.7,18.7,0,0,0-7.2,7.57,23.52,23.52,0,0,0-2.58,11.18,24,24,0,0,0,1.9,9.88q3.54.11,9.7.13a34.37,34.37,0,0,1-1.39-10.24q0-8.43,2.8-14.08c1.88-3.76,4.74-5.64,8.61-5.64a11,11,0,0,1,3.95.71,9.94,9.94,0,0,1,3.33,2.09,9.27,9.27,0,0,1,2.92,3.9,29.09,29.09,0,0,1,1.38,6.48h1.32q0-10,.22-13.87Z"/><path class="cls-1" d="M337.58,38.48a2,2,0,0,1-1.2,1.31,9.76,9.76,0,0,1-2.79.46V41.4c1.19,0,2.54-.06,4.07-.08V38.18A2.17,2.17,0,0,1,337.58,38.48ZM364.27.81q-3.56.17-12,.17-12.51,0-18.7-.17V2a10.13,10.13,0,0,1,2.79.46,2,2,0,0,1,1.2,1.32,11.29,11.29,0,0,1,.31,3.15V31.44c1.33,0,2.84,0,4.53,0s3.23,0,4.59,0V21.56h1.84q5.79,0,7,7.57h1.32q-.35-5.22-.34-8.14V18.24c0-2,.05-3.79.17-5.39h-1.32a14,14,0,0,1-2.21,5.33,5.29,5.29,0,0,1-4.61,2.24H347V6.2a8.91,8.91,0,0,1,.29-2.67,1.72,1.72,0,0,1,1.09-1.12A8.39,8.39,0,0,1,351,2.13h2.35a8.08,8.08,0,0,1,6.3,2.46c1.49,1.65,2.53,4.51,3.1,8.6H364a32.43,32.43,0,0,1-.17-3.9Q363.87,5.57,364.27.81Zm-.4,27.06a23.66,23.66,0,0,1-2.29,7.65,18.93,18.93,0,0,1,3.18-2.32l.25-.14v-.37c0-1.95.06-3.56.18-4.82ZM351,40.08a8,8,0,0,1-2.58-.29,1.7,1.7,0,0,1-1.09-1.11A9,9,0,0,1,347,36V34.58a13.22,13.22,0,0,0-.23,2.8v3.86h5.51l5,0c.07-.17.16-.33.24-.49a21.29,21.29,0,0,1,1.33-2.17,8.66,8.66,0,0,1-5.11,1.49Z"/><path class="cls-1" d="M429.43,2.15A9.8,9.8,0,0,0,422.81,0a9.34,9.34,0,0,0-5.22,1.29,4,4,0,0,0-1.95,3.53,3.38,3.38,0,0,0,1.23,2.78,5,5,0,0,0,3.24,1,5.32,5.32,0,0,0,3.3-1,3.19,3.19,0,0,0,1.29-2.69,3.46,3.46,0,0,0-.75-2.1,4.55,4.55,0,0,0-2.06-1.52A3.82,3.82,0,0,1,423.55,1a7.25,7.25,0,0,1,4.5,1.49,4.49,4.49,0,0,1,2,3.72,3.8,3.8,0,0,1-2.12,3.3,24.23,24.23,0,0,1-6.54,2.38,61.09,61.09,0,0,1-6.07,1.66l-2.47.63q-6.31,1.21-9.57,3.73A8.16,8.16,0,0,0,400,24.77a6.5,6.5,0,0,0,2.43,5.45,8.17,8.17,0,0,0,2.3,1.26,10.87,10.87,0,0,0,3.81.63,14.77,14.77,0,0,0,1.52-.07,10.49,10.49,0,0,0,4.33-1.25,4.23,4.23,0,0,0,2.29-3.9,3.62,3.62,0,0,0-1.17-2.83A4.67,4.67,0,0,0,412.26,23a5.21,5.21,0,0,0-3.3,1,3.33,3.33,0,0,0-1.29,2.78,3.73,3.73,0,0,0,.75,2.35,4.2,4.2,0,0,0,2.12,1.43,2.13,2.13,0,0,1-1,.41,6.08,6.08,0,0,1-1.35.17A7.5,7.5,0,0,1,404,29.85a3.9,3.9,0,0,1-1.92-3.36,3.64,3.64,0,0,1,2.24-3.26,29.4,29.4,0,0,1,7-2.3l3.21-.92,3.67-1c2.9,1.34,4.36,3.77,4.36,7.28a7.31,7.31,0,0,1-2.27,5.36,14.45,14.45,0,0,1-5.9,3.44c-.51.17-1,.32-1.55.44l3.51,4.33a15.79,15.79,0,0,0,5.75-4.48,11.45,11.45,0,0,0,2.46-7.19,12.09,12.09,0,0,0-1.37-5.85,8.2,8.2,0,0,0-4-3.67l1-.35q5.75-1.2,8.69-3.58a8,8,0,0,0,2.95-6.62A7.45,7.45,0,0,0,429.43,2.15ZM394.51,33.46a9.18,9.18,0,0,1-4.44-8.34,9.31,9.31,0,0,1,1.58-5.59,12.15,12.15,0,0,1,4.5-3.7c.8.46,1.47.82,2,1.09a3.67,3.67,0,0,0,1.67.4A2,2,0,0,0,401,17a1,1,0,0,0,.46-.88,1.36,1.36,0,0,0-.54-1.12,2.5,2.5,0,0,0-1.58-.43,16.24,16.24,0,0,0-3.21.46,8.57,8.57,0,0,1-2.24-5.85,7.39,7.39,0,0,1,2-5.56A7.1,7.1,0,0,1,401,1.67a8.43,8.43,0,0,1,2.24.28,3.94,3.94,0,0,1,1.54.75,4.41,4.41,0,0,0-2.63,1.46,3.89,3.89,0,0,0-1,2.61,3.16,3.16,0,0,0,1.18,2.64,5.23,5.23,0,0,0,6.13-.15,3.35,3.35,0,0,0,1.29-2.72,4.09,4.09,0,0,0-1-2.75,7.39,7.39,0,0,0-2.52-1.89A8.26,8.26,0,0,0,403.77,1a17.68,17.68,0,0,0-3.5-.29,15.59,15.59,0,0,0-8,2,6.09,6.09,0,0,0-3.39,5.48q0,4.64,6.48,7.22a21.87,21.87,0,0,0-4.9,2,14.39,14.39,0,0,0-4.67,4,10.4,10.4,0,0,0-2.07,6.57,12.5,12.5,0,0,0,.74,4.33h0c.5.22,1,.45,1.46.71A17.16,17.16,0,0,1,393,40.11l.06.11c.22.1.44.18.66.26a31.51,31.51,0,0,0,10.12,1.7v-4.8c0-.46,0-.87,0-1.25A20.4,20.4,0,0,1,394.51,33.46Zm10.64,8.73q.68,0,1.32,0l-1.32-1.68Z"/><path class="cls-2" d="M38.27,40.11q-.41-.75-.87-1.44.09,1.48.24,2.73c-1.76-.07-4.35-.13-7.75-.15a34.53,34.53,0,0,1,1.38,10.24A38.86,38.86,0,0,1,30,62a16.83,16.83,0,0,1-3.7,7.14,7.43,7.43,0,0,1-5.56,2.55,7.68,7.68,0,0,1-5.53-2.47,17,17,0,0,1-4-7A34.34,34.34,0,0,1,9.77,51.72,38.77,38.77,0,0,1,11,41.3c-2,0-3.75.06-5.22.1V40.25a9.74,9.74,0,0,0,2.78-.46,2,2,0,0,0,1.2-1.31,11.32,11.32,0,0,0,.31-3.16V33.15L10,33.2a18.68,18.68,0,0,0-7.2,7.56A23.56,23.56,0,0,0,.25,52,23.1,23.1,0,0,0,2.78,63.1a17.19,17.19,0,0,0,7.08,7.13A21.91,21.91,0,0,0,20.49,72.7,20.51,20.51,0,0,0,31,70a18.7,18.7,0,0,0,7.2-7.57,23.55,23.55,0,0,0,2.58-11.18A23.15,23.15,0,0,0,38.27,40.11ZM25.85,34a15.61,15.61,0,0,1,3.44,5.54,8.07,8.07,0,0,0,3.27-2.24A9.74,9.74,0,0,0,34.09,35a16.76,16.76,0,0,0-2.91-2A21.91,21.91,0,0,0,20.55,30.5c-.45,0-.88,0-1.32,0v1.08a7.88,7.88,0,0,1,1.09-.08A7.72,7.72,0,0,1,25.85,34Z"/><path class="cls-3" d="M37.64,41.4c-1.76-.07-4.35-.13-7.75-.15a2.58,2.58,0,0,0-.08-.26c-.16-.5-.34-1-.52-1.45a8.07,8.07,0,0,0,3.27-2.24A9.74,9.74,0,0,0,34.09,35a16.65,16.65,0,0,1,3.31,3.72Q37.49,40.15,37.64,41.4Z"/><path class="cls-3" d="M19.23,30.53v1.08a7.6,7.6,0,0,0-4.47,2.48,16.84,16.84,0,0,0-3.7,7.13s0,.05,0,.08c-2,0-3.75.06-5.22.1V40.25a9.74,9.74,0,0,0,2.78-.46,2,2,0,0,0,1.2-1.31,11.32,11.32,0,0,0,.31-3.16V33.15A20.13,20.13,0,0,1,19.23,30.53Z"/><path class="cls-2" d="M44.74,31.3v1.15a10.13,10.13,0,0,1,2.79.46,1.85,1.85,0,0,1,.95.79l.34-.44,1.34-1.8C47.9,31.44,46.09,31.38,44.74,31.3ZM82.81,68.69a5.21,5.21,0,0,1-1.11,1,2.82,2.82,0,0,1-1.18.35,1.91,1.91,0,0,1-1.69-.92,9.66,9.66,0,0,1-1.06-3.21L76.45,60a8.32,8.32,0,0,0-3.27-5.33q-2.52-1.77-7.68-2.24,6.89-.8,9.86-3.89a10,10,0,0,0,3-7.17h0c-2.77-.11-4.66-.16-5.67-.16-.75,0-2,0-3.87.07,0,.24,0,.48,0,.73a12.14,12.14,0,0,1-1.74,7q-1.76,2.5-6.45,2.5H58.16V37.38a12.38,12.38,0,0,1,.29-3.09,2.22,2.22,0,0,1,1-1.44,5,5,0,0,1,2.27-.4,7.85,7.85,0,0,1,1.21.08l-.79-1.17c-.86,0-1.63,0-2.32.06l-6.36.06H51.8A9.4,9.4,0,0,0,50,36.35a3.34,3.34,0,0,0,1.29,2.79,6.27,6.27,0,0,0,3.59,1.11V41.4c-1.52-.08-3.46-.13-5.8-.16V65.82A11.29,11.29,0,0,1,48.73,69a2,2,0,0,1-1.2,1.32,10.13,10.13,0,0,1-2.79.46V71.9c1.95-.12,5-.17,9.06-.17,3.71,0,6.6,0,8.66.17V70.75a9.87,9.87,0,0,1-2.81-.46A2,2,0,0,1,58.48,69a11.2,11.2,0,0,1-.32-3.15V52.63h3.73a3.67,3.67,0,0,1,3.52,2,21.88,21.88,0,0,1,1.81,6.16l1,5.74a7.09,7.09,0,0,0,2.5,4.79A8.74,8.74,0,0,0,76,72.7a10.84,10.84,0,0,0,4.3-.77,9.62,9.62,0,0,0,3.33-2.55ZM78.05,38.9a8.14,8.14,0,0,0-3.37-4.74l2.17,3.17A16.07,16.07,0,0,0,78.05,38.9Z"/><path class="cls-3" d="M78.34,41.33c-2.77-.11-4.66-.16-5.67-.16-.75,0-2,0-3.87.07a11.71,11.71,0,0,0-1.64-6.38,5.58,5.58,0,0,0-4.23-2.33l-.79-1.17h.32q7.92,0,11.9,2.58a3.62,3.62,0,0,1,.32.22l2.17,3.17a16.07,16.07,0,0,0,1.2,1.57A9.87,9.87,0,0,1,78.34,41.33Z"/><path class="cls-3" d="M54.84,40.25V41.4c-1.52-.08-3.46-.13-5.8-.16V37.38a11.29,11.29,0,0,0-.31-3.15,2,2,0,0,0-.25-.53l.34-.44,1.34-1.8H51.8A9.4,9.4,0,0,0,50,36.35a3.34,3.34,0,0,0,1.29,2.79A6.27,6.27,0,0,0,54.84,40.25Z"/><path class="cls-2" d="M120.16,40q0-5.93.21-8.73h-1.32a9.89,9.89,0,0,1-.52,2.61c-.23.56-.53.83-.91.83a2.1,2.1,0,0,1-1.15-.51,20.49,20.49,0,0,0-4.79-2.75,16.15,16.15,0,0,0-6-1A21.23,21.23,0,0,0,95.2,33.07V35a8.39,8.39,0,0,0,.49,3.35,2.44,2.44,0,0,0,1.48,1.33,15,15,0,0,1,3.16-4.94A9,9,0,0,1,107,32a11.74,11.74,0,0,1,4.13.75,9.8,9.8,0,0,1,3.38,2.06,9.26,9.26,0,0,1,3,4.07,28.63,28.63,0,0,1,1.35,6.31h1.32c0-1.36,0-2.64,0-3.83l-1.9,0V40.25A14.05,14.05,0,0,0,120.16,40Zm-4.55,14.61q-6.26,0-9.81-.17v1.14a12.39,12.39,0,0,1,3.7.58,2.75,2.75,0,0,1,1.64,1.69,12.35,12.35,0,0,1,.46,3.93v5.62a4.28,4.28,0,0,1-.32,1.77,3,3,0,0,1-1.06,1.21,6.7,6.7,0,0,1-4.07,1.14q-11,0-11-19.83a36.07,36.07,0,0,1,1.26-9.81c.06-.21.12-.41.19-.61-2.39,0-4.3-.07-5.75-.07l-3.5,0a23.31,23.31,0,0,0-2.4,10.8q0,9.81,5.27,15.22T105.4,72.7a18.93,18.93,0,0,0,9.41-2.87,7.48,7.48,0,0,1,3.09-1.2c.5,0,.89.34,1.18,1a6.78,6.78,0,0,1,.49,2.24h1.14V60.55a17.85,17.85,0,0,1,.2-3.16,2,2,0,0,1,.72-1.32,3.81,3.81,0,0,1,1.66-.46V54.47Q120.71,54.64,115.61,54.64Z"/><path class="cls-3" d="M120.16,40c0,.43,0,.87,0,1.32l-1.9,0V40.25A14.05,14.05,0,0,0,120.16,40Z"/><path class="cls-3" d="M97.17,39.66a15.82,15.82,0,0,0-.58,1.64c-2.39,0-4.3-.07-5.75-.07l-3.5,0c.08-.17.17-.34.26-.5A19.08,19.08,0,0,1,95,33.2l.23-.13V35a8.39,8.39,0,0,0,.49,3.35A2.44,2.44,0,0,0,97.17,39.66Z"/><path class="cls-2" d="M161,69.83a7.11,7.11,0,0,1-1.72-2.75l-10-25.71c-2.19-.08-5.38-.12-9.54-.13l5.19,14.14H133.27l5.45-14.15h-1.28l-9.16,23.5c-1.41,3.67-3.06,5.68-4.93,6V71.9c1.15-.12,2.6-.17,4.36-.17,2.14,0,4.51,0,7.11.17V70.75a7.75,7.75,0,0,1-3.82-1,3.22,3.22,0,0,1-1.29-3,19.28,19.28,0,0,1,1.61-6.36l1.49-4h12.5l3.44,9.4a8,8,0,0,1,.69,2.76,1.55,1.55,0,0,1-.92,1.52,9.34,9.34,0,0,1-3.1.54V71.9c1.91-.12,4.82-.17,8.72-.17,3.51,0,6.42,0,8.71.17V70.75A3.21,3.21,0,0,1,161,69.83ZM139.17,40.06l.06-.16.05.15A8.2,8.2,0,0,0,145,37.3a10.71,10.71,0,0,0,1.67-2.63l-1.35-3.48q-.57.06-1.95.06t-2-.06l-3.46,8.89h.54Z"/><path class="cls-3" d="M139.17,40.06l-.45,1.17h-1.28l.45-1.15h.54Z"/><path class="cls-3" d="M149.26,41.37c-2.19-.08-5.38-.12-9.54-.13l-.44-1.19A8.2,8.2,0,0,0,145,37.3a10.71,10.71,0,0,0,1.67-2.63Z"/><path class="cls-2" d="M195.42,41.34V58.65L181.28,41.22l-2.68-3.3-5.37-6.62c-1.37.12-3,.18-4.93.18H168v3.84a11.23,11.23,0,0,0,.32,3.16,2,2,0,0,0,1.17,1.31,9.59,9.59,0,0,0,2.81.46V41.4c-.79,0-1.7-.08-2.73-.1L193.81,72l1.55-.05,1.38.05V41.3Zm.63-9.86q-4,0-6.19-.18v1.15a9.36,9.36,0,0,1,3.72,1,3.43,3.43,0,0,1,1.5,2.3,23,23,0,0,1,.33,4.4,7.45,7.45,0,0,0,1.33-.26,21.93,21.93,0,0,1,.31-4.29,3.5,3.5,0,0,1,1.21-2.17l.31-.21V31.44C197.82,31.47,197,31.48,196.05,31.48ZM170.77,69.75a3.36,3.36,0,0,1-1.49-2.3,25.41,25.41,0,0,1-.35-5V41.28l-1.32,0V63.18a23.18,23.18,0,0,1-.31,4.42,3.55,3.55,0,0,1-1.21,2.18,6.17,6.17,0,0,1-2.78,1V71.9c1.22-.12,2.89-.17,5-.17,2.64,0,4.7,0,6.19.17V70.75A9.19,9.19,0,0,1,170.77,69.75Z"/><path class="cls-3" d="M201,31.3v1.15a6.92,6.92,0,0,0-2.47.77V31.44C199.55,31.42,200.37,31.37,201,31.3Z"/><path class="cls-3" d="M196.74,39.89V41.3l-1.32,0v-.63c0-.19,0-.38,0-.56A7.45,7.45,0,0,0,196.74,39.89Z"/><path class="cls-3" d="M172.31,40.25V41.4c-.79,0-1.7-.08-2.73-.1l-.65-.82v.8l-1.32,0V37.38a11.29,11.29,0,0,0-.31-3.15,2,2,0,0,0-1.21-1.32,10,10,0,0,0-2.78-.46V31.3c1.16.11,2.74.17,4.7.18v3.84a11.23,11.23,0,0,0,.32,3.16,2,2,0,0,0,1.17,1.31A9.59,9.59,0,0,0,172.31,40.25Z"/><path class="cls-2" d="M219.56,70.29A2,2,0,0,1,218.38,69a11.29,11.29,0,0,1-.31-3.15V41.35l-2.24,0V40.25a12.41,12.41,0,0,0,2.24-.29V37.38a11.29,11.29,0,0,1,.31-3.15,2,2,0,0,1,1.18-1.32l.57-.18V31.4q-2.64.08-6.42.08c-2.37,0-4.37,0-6-.06V33a2,2,0,0,1,.94,1.19,11.2,11.2,0,0,1,.32,3.15v2.31l.23.1a9.53,9.53,0,0,0,2.81.46V41.4c-.87,0-1.88-.08-3-.11V65.82a11.2,11.2,0,0,1-.32,3.15,2,2,0,0,1-1.2,1.32,10,10,0,0,1-2.78.46V71.9c1.95-.12,5-.17,9.06-.17,3.71,0,6.59,0,8.66.17V70.75A9.87,9.87,0,0,1,219.56,70.29Z"/><path class="cls-3" d="M218.07,40v1.39l-2.24,0V40.25A12.41,12.41,0,0,0,218.07,40Z"/><path class="cls-3" d="M212,40.25V41.4c-.87,0-1.88-.08-3-.11v-1.6l.23.1A9.53,9.53,0,0,0,212,40.25Z"/><path class="cls-3" d="M222.37,31.3v1.15a14.54,14.54,0,0,0-2.24.28V31.4C221,31.37,221.71,31.34,222.37,31.3Z"/><path class="cls-3" d="M207.69,31.42V33a2.1,2.1,0,0,0-.26-.13,10,10,0,0,0-2.78-.46V31.3C205.47,31.35,206.49,31.39,207.69,31.42Z"/><path class="cls-2" d="M227.34,41.25c0,1.24-.07,2.29-.16,3.13h1.32a22.6,22.6,0,0,1,.57-3.14Zm28.85-9.95q-3.19.12-8.93.15c0,.4,0,.81,0,1.24a77,77,0,0,0,.4,8.71q-2.16-.09-6-.14L226.49,70.75V71.9q4.77-.18,15.43-.17,10,0,14.27.17a79.67,79.67,0,0,1-.4-8.72c0-2.06.06-3.74.17-5h-1.31q-.69,6.48-4.16,9.46a11.82,11.82,0,0,1-7.94,3h-6l19.61-38.13Zm-26.45,7.8a10,10,0,0,1,2.52-3.78,11.09,11.09,0,0,1,7.71-2.7H245c.12-.37.23-.75.34-1.15h-5.51c-4.51,0-8,0-10.6-.1V36a9.08,9.08,0,0,0,.28,2.67A1.38,1.38,0,0,0,229.74,39.1Z"/><path class="cls-3" d="M241.7,41.26l4.46-8.64H245c.12-.37.23-.75.34-1.15l1.9,0c0,.4,0,.81,0,1.24a77,77,0,0,0,.4,8.71Q245.49,41.31,241.7,41.26Z"/><path class="cls-3" d="M229.74,39.1a15,15,0,0,0-.67,2.14h-1.73c0-.39,0-.8,0-1.23q0-3.84-.4-8.72c.65,0,1.42.06,2.3.08V36a9.08,9.08,0,0,0,.28,2.67A1.38,1.38,0,0,0,229.74,39.1Z"/><path class="cls-2" d="M295.53,69.83a7,7,0,0,1-1.73-2.75l-9.94-25.61-1.12,0-7.26-9.2L262.84,64.73q-2.11,5.51-4.93,6V71.9c1.15-.12,2.6-.17,4.36-.17,2.14,0,4.51,0,7.11.17V70.75a7.74,7.74,0,0,1-3.81-1,3.22,3.22,0,0,1-1.29-3,19.21,19.21,0,0,1,1.6-6.36l1.49-4h12.5l3.44,9.4a8,8,0,0,1,.69,2.76,1.55,1.55,0,0,1-.92,1.52,9.32,9.32,0,0,1-3.09.54V71.9c1.91-.12,4.81-.17,8.71-.17,3.52,0,6.42,0,8.72.17V70.75A3.18,3.18,0,0,1,295.53,69.83Zm-27.7-14.45,6-15.48,5.68,15.48Z"/><path class="cls-3" d="M283.86,41.47l-1.12,0-7.26-9.2.44-1.12c.42,0,1.09.06,2,.06s1.57,0,1.95-.06Z"/><path class="cls-2" d="M296.21,32.6c-.22-.41-.43-.83-.62-1.27l-1,0c.27,3.64.4,6.88.4,9.75,0,1.8-.06,3.25-.17,4.36h1.32a31.83,31.83,0,0,1,2.35-7.6,11.74,11.74,0,0,1,.68-1.22A17.53,17.53,0,0,1,296.21,32.6Zm33.71-1.3-1.7.05c0,4.6.09,8,.21,10h-1c.35,1.2.67,2.54,1,4h1.32a42.22,42.22,0,0,1-.18-4.36C329.52,38.18,329.66,34.94,329.92,31.3Zm-3.66,6.93c.23.49.44,1,.65,1.6a5.24,5.24,0,0,0-.28-1A1.44,1.44,0,0,0,326.26,38.23Zm-14-6.75c-2.56,0-4.88,0-7,0,.13.4.26.79.41,1.18l.72,0h1.26V65.36a9.08,9.08,0,0,1-.49,3.5,2.59,2.59,0,0,1-1.72,1.46,16,16,0,0,1-3.93.43V71.9c4.59-.12,8.09-.17,10.5-.17s6.07,0,10.89.17V70.75a16,16,0,0,1-3.93-.43,2.61,2.61,0,0,1-1.72-1.46,9.32,9.32,0,0,1-.48-3.5V32.62h1.31a8,8,0,0,1,6.51,2.87l.17.21a8.56,8.56,0,0,0,.81-1.7,19.58,19.58,0,0,0,.67-2.61Q321.11,31.48,312.27,31.48Z"/><path class="cls-3" d="M328.43,41.4h-1c-.16-.54-.33-1.06-.51-1.54v0a5.24,5.24,0,0,0-.28-1,1.44,1.44,0,0,0-.37-.56s0,0,0,0a12.22,12.22,0,0,0-1.46-2.51,8.56,8.56,0,0,0,.81-1.7,19.58,19.58,0,0,0,.67-2.61l2,0C328.25,36,328.31,39.31,328.43,41.4Z"/><path class="cls-3" d="M305.7,32.64a7.7,7.7,0,0,0-6.57,4,17.53,17.53,0,0,1-2.92-4c-.22-.41-.43-.83-.62-1.27q3.54.11,9.7.13C305.42,31.86,305.55,32.25,305.7,32.64Z"/><path class="cls-2" d="M347.1,69a11.2,11.2,0,0,1-.32-3.15V41.24q-5.28,0-9.12.08v24.5a11.29,11.29,0,0,1-.31,3.15,2,2,0,0,1-1.2,1.32,10.13,10.13,0,0,1-2.79.46V71.9c1.95-.12,5-.17,9.06-.17,3.71,0,6.6,0,8.66.17V70.75a9.94,9.94,0,0,1-2.81-.46A2,2,0,0,1,347.1,69ZM347,31.44v3.14a3,3,0,0,1,.09-.35,2,2,0,0,1,1.17-1.32,9.94,9.94,0,0,1,2.81-.46V31.3C350,31.36,348.61,31.41,347,31.44Zm-9.66,2.79a11.29,11.29,0,0,1,.31,3.15v.8a13,13,0,0,0,.23-2.86V31.44c-1.88,0-3.39-.07-4.53-.14v1.15a10.13,10.13,0,0,1,2.79.46A2,2,0,0,1,337.35,34.23Z"/><path class="cls-3" d="M347,31.44v3.14a13.22,13.22,0,0,0-.23,2.8v3.86q-5.28,0-9.12.08V38.18a13,13,0,0,0,.23-2.86V31.44c1.33,0,2.84,0,4.53,0S345.65,31.47,347,31.44Z"/><path class="cls-2" d="M358.9,38.58a8.21,8.21,0,0,0,1.44-1.28,9.46,9.46,0,0,0,1.24-1.78A18.26,18.26,0,0,0,358.9,38.58Zm34.15,1.64a15.81,15.81,0,0,1-6.74-4.7,11.55,11.55,0,0,1-1.86-3.26h0a22.61,22.61,0,0,0-9.16-1.76A20.44,20.44,0,0,0,365,33.06a75.45,75.45,0,0,0,.41,8.34c-1.82-.08-4.53-.13-8.1-.15A23.68,23.68,0,0,0,355,52,23.21,23.21,0,0,0,357.5,63.1a17.31,17.31,0,0,0,7.08,7.13,22,22,0,0,0,10.64,2.47A20.53,20.53,0,0,0,385.74,70a18.7,18.7,0,0,0,7.2-7.57,23.55,23.55,0,0,0,2.58-11.18A23.13,23.13,0,0,0,393.05,40.22ZM384.71,62a16.83,16.83,0,0,1-3.7,7.14,7.45,7.45,0,0,1-5.56,2.55,7.68,7.68,0,0,1-5.53-2.47,16.93,16.93,0,0,1-4-7,34.34,34.34,0,0,1-1.46-10.49,38.89,38.89,0,0,1,1.29-10.5,16.84,16.84,0,0,1,3.7-7.13,7.41,7.41,0,0,1,5.56-2.56A7.73,7.73,0,0,1,380.58,34a17,17,0,0,1,4,7A34.37,34.37,0,0,1,386,51.49,38.86,38.86,0,0,1,384.71,62Z"/><path class="cls-3" d="M393.05,40.22a15.81,15.81,0,0,1-6.74-4.7,11.55,11.55,0,0,1-1.86-3.26c.5.22,1,.45,1.46.71A17.16,17.16,0,0,1,393,40.11Z"/><path class="cls-3" d="M365.42,41.4c-1.82-.08-4.53-.13-8.1-.15.07-.17.16-.33.24-.49a21.29,21.29,0,0,1,1.33-2.17,0,0,0,0,1,0,0,8.21,8.21,0,0,0,1.44-1.28,9.46,9.46,0,0,0,1.24-1.78,18.93,18.93,0,0,1,3.18-2.32l.25-.14A75.45,75.45,0,0,0,365.42,41.4Z"/><path class="cls-2" d="M432.27,31.48q-4,0-6.19-.18v1.15a9.36,9.36,0,0,1,3.72,1,3.42,3.42,0,0,1,1.49,2.3,25.41,25.41,0,0,1,.35,5V58.65L416.37,39.83c-.39.19-.8.37-1.22.54a26.14,26.14,0,0,1-8.67,1.79L430,72l1.55-.05L433,72V40a23.18,23.18,0,0,1,.31-4.42,3.5,3.5,0,0,1,1.21-2.17,6,6,0,0,1,2.78-1V31.3C436.07,31.42,434.41,31.48,432.27,31.48Zm-28.76,2.75a7.92,7.92,0,0,1,.28,1.9c1,.07,2,.11,3,.11a24.28,24.28,0,0,0,6.05-.74L410.05,32l-.6-.74c-1.33.12-2.91.18-4.73.18h-.2c-2.1,0-3.77-.06-5-.18v1.15a10,10,0,0,1,2.78.46A2,2,0,0,1,403.51,34.23Zm2,33.22a25.6,25.6,0,0,1-.34-5V42.19h-.35c-.33,0-.65,0-1,0v21a23,23,0,0,1-.32,4.42,3.59,3.59,0,0,1-1.2,2.18,6.17,6.17,0,0,1-2.78,1V71.9c1.22-.12,2.89-.17,5-.17,2.63,0,4.7,0,6.19.17V70.75a9.3,9.3,0,0,1-3.73-1A3.43,3.43,0,0,1,405.49,67.45Z"/><path class="cls-3" d="M416.37,39.83c-.39.19-.8.37-1.22.54a26.14,26.14,0,0,1-8.67,1.79h0l-1.32-1.68v1.71h-.35c-.33,0-.65,0-1,0v-4.8c0-.46,0-.87,0-1.25,1,.07,2,.11,3,.11a24.28,24.28,0,0,0,6.05-.74Z"/></svg>