<svg id="Layer_1" data-name="Layer 1" xmlns="http://www.w3.org/2000/svg" viewBox="0 0 97.16 90.39"><defs><style>.cls-1{fill:#424242;}</style></defs><path class="cls-1" d="M70.4,47.15c-2.19-5.36-7.58-8.27-13.22-8.36a1.9,1.9,0,0,0-1.18.35,10.42,10.42,0,0,0-7.8,8.29s0,.07,0,.1a7.33,7.33,0,0,0-4.84-1.59,7.07,7.07,0,0,0-3.48,1.12,13.39,13.39,0,0,0-7.51-7.65,2.17,2.17,0,0,0-1.76-1.08c-4.87-.36-10.17,1.26-12.08,6.18a14.27,14.27,0,0,0-.35,7.56,14.11,14.11,0,0,0,3,6.7,11.35,11.35,0,0,0,12.31,3.42,11.11,11.11,0,0,0,7.26-10.67,2.53,2.53,0,0,0,.65-.62c0,.06-.28.33-.1.13l.15-.17c.11-.12.23-.21.34-.32l.11-.07c.15-.1.3-.18.45-.26l.08,0c.16-.05.32-.11.49-.15l.35-.07.22,0H44c.32.07.63.16.94.26l.2.11a3.07,3.07,0,0,1,.43.26l0,0s0,0,.11.08l.07,0-.05,0c.14.12.27.25.4.38a2,2,0,0,0,1.84.54c.31,3.44,1.79,6.83,4.89,8.52a16.09,16.09,0,0,0,7.26,1.61,10.93,10.93,0,0,0,7.12-2.13A10.75,10.75,0,0,0,70.4,47.15ZM33.05,58a7.22,7.22,0,0,1-8.21-1.18c-2.47-2.28-3.4-6.29-2.94-9.55.53-3.82,4-5,7.37-5a2,2,0,0,0,.91.58,9.26,9.26,0,0,1,6.33,6.78A7.39,7.39,0,0,1,33.05,58Zm32.77-2.54c-2.2,2.77-6.22,2.6-9.34,1.77a5.32,5.32,0,0,1-3.68-2.84,9.89,9.89,0,0,1-.87-4.58c.1-3.55,2.48-7.16,6.38-6.83a1.46,1.46,0,0,0,.55-.06,9.86,9.86,0,0,1,7,4.14A7.14,7.14,0,0,1,65.82,55.48Z"/><path class="cls-1" d="M45.74,50.68l-.11-.08.13.09h0Z"/><path class="cls-1" d="M31.48,50.45c0-.11,0-.22,0-.33s0-.3,0-.45a2.78,2.78,0,0,0-.07-.57,6.88,6.88,0,0,0-.24-.89l0-.19a1.65,1.65,0,0,0-.36-.68,1.55,1.55,0,0,0-.56-.52l-.48-.2a1.6,1.6,0,0,0-.65,0H28.9a1,1,0,0,0-.5.13l-.11.05-.05,0a1.37,1.37,0,0,0-.3.19l-.05,0a.81.81,0,0,0-.14.12l0,0a1.72,1.72,0,0,0-.31.4l-.09.22v0l-.1.24a1.85,1.85,0,0,0,0,.66v1.47a2,2,0,0,0,.12.63c0,.3,0,.6,0,.9a2.05,2.05,0,0,0,.59,1.41l.4.32a1.53,1.53,0,0,0,.75.23,1,1,0,0,0,.53,0,1.5,1.5,0,0,0,.74-.23,2,2,0,0,0,.92-1.2,7,7,0,0,0,.2-1.21A1.82,1.82,0,0,0,31.48,50.45Z"/><path class="cls-1" d="M61.61,48.72a1.46,1.46,0,0,0-.18-.77A1.44,1.44,0,0,0,61,47.3a2.73,2.73,0,0,0-.25-.2,2,2,0,0,0-.79-.88L59.5,46a1.55,1.55,0,0,0-.8,0,1.84,1.84,0,0,0-1.15.55A2.13,2.13,0,0,0,57,48l0,.4a2.32,2.32,0,0,0-.05,1.45l0,.57a2.15,2.15,0,0,0,0,1.1l.07.28a2,2,0,0,0,.92,1.19l.48.2a1.54,1.54,0,0,0,.6.06l0,0,.48.2a1.55,1.55,0,0,0,.8,0,2,2,0,0,0,1.73-2C61.84,50.57,61.72,49.64,61.61,48.72Z"/><path class="cls-1" d="M31.69,28.52A2.29,2.29,0,0,0,30.34,28,18.23,18.23,0,0,0,22,29.15a2.18,2.18,0,0,0-1.19.92,2.15,2.15,0,0,0-.27,1,1.8,1.8,0,0,0,.15,1.62,2,2,0,0,0,2.74.72,9.62,9.62,0,0,1,1.2-.7l1.05-.19h.86l4.62-.09a2,2,0,0,0,2-2A2.07,2.07,0,0,0,31.69,28.52Z"/><path class="cls-1" d="M62.72,27.73l-9.8.09a2,2,0,0,0,0,4l1.34,0a2,2,0,0,0,2.6.54l.29-.15,0,0h0c.25-.07.48-.16.73-.22l.24,0h0a5.87,5.87,0,0,1,.84,0,1.82,1.82,0,0,0,.79-.18l2.86,0a2,2,0,0,0,0-4Z"/><path class="cls-1" d="M93.82,34.18a51.79,51.79,0,0,0-5.47-11.79c-1.36-2.18-4.82-.17-3.45,2,8.34,13.33,10,30.73,1.53,44.41A34.81,34.81,0,0,1,70.76,82.57a34.49,34.49,0,0,1-6.63,2A40.64,40.64,0,0,0,89.21,58.74a41.12,41.12,0,0,0-.39-25.07A40.7,40.7,0,0,0,74.61,14.31,48.14,48.14,0,0,0,60.23,6.93a1.92,1.92,0,0,0-1-2,39.21,39.21,0,0,0-27-2.14A39.16,39.16,0,0,0,12.2,16.64,44,44,0,0,0,4.76,32.82a60,60,0,0,0-3.69,15A30.44,30.44,0,0,0,2.45,61.56,31.14,31.14,0,0,0,9.11,72.15c6.16,6.55,14.57,10.36,23,13,8.76,2.77,18.09,4.75,27.31,4a38.55,38.55,0,0,0,23-9.49,41.19,41.19,0,0,0,12.1-19.55A46,46,0,0,0,93.82,34.18ZM79.54,24.63A36.35,36.35,0,0,1,87,45.68,36,36,0,0,1,80.86,67,37.32,37.32,0,0,1,64.71,80.18C57,83.46,48.35,83.62,40.21,82c-7.62-1.5-15.38-4.19-21.61-8.94C6.85,64.12,5.17,48.35,8.4,34.74a45.06,45.06,0,0,1,10.87-17C30.7,6.93,48.63,6.36,62.65,12.07A41.06,41.06,0,0,1,79.54,24.63Z"/><path class="cls-1" d="M52.72,65.64a2,2,0,0,0-2.83,0,6.88,6.88,0,0,1-.54.54L49,66.5l-.18.14-.19.14L48.3,67c-.24.15-.49.3-.75.43a8.7,8.7,0,0,1-2.72.87l-.52.06a6.66,6.66,0,0,1-.77,0,8.44,8.44,0,0,1-.87,0l-.22,0-.2,0c-.29-.06-.57-.12-.84-.2L41.05,68l-.08,0-.31-.16-.26-.16a1.78,1.78,0,0,1-.14-.14c-.06-.06-.28-.37-.09-.1a2,2,0,0,0-2.74-.71,2,2,0,0,0-.72,2.73C38.46,72,42,72.64,44.89,72.3a12.67,12.67,0,0,0,7.83-3.83A2,2,0,0,0,52.72,65.64Z"/></svg>