<svg id="Layer_1" data-name="Layer 1" xmlns="http://www.w3.org/2000/svg" viewBox="0 0 1637.81 382.45"><defs><style>.cls-1{fill:#fff;}.cls-2{fill:none;stroke:#ff5b38;stroke-miterlimit:10;stroke-width:1.4px;}.cls-3{fill:#ff5b38;}</style></defs><path class="cls-1" d="M639.54,38.47q-18.1,0-40-.95V44c9.25.42,16.21,2.74,20.82,6.93s7,10.93,7,20.18q0,13.23-7.44,37.47l-30.68,97.51-44.23-135q-3.23-9.36-3.21-15.18c0-4.52,1.7-7.57,5.17-9.19s9-2.54,16.76-2.74V37.52q-14.83,1-46.49.95-28.08,0-46.16-.95V44a18.29,18.29,0,0,1,10.17,4.36q4.35,3.69,7.57,13.08l16.49,50-28.56,84.27a73.28,73.28,0,0,1,9.11-2.73l23.33-70.25L532.58,194a56.54,56.54,0,0,1,14.78,6.32,38.42,38.42,0,0,1,13.08,13.08,33.52,33.52,0,0,1,4.67,17.29c0,7.52-2.35,13.72-7.1,18.56a24,24,0,0,1-5.81,4.35l4.36,13.19q3.56-.33,11.31-.33c5.17,0,8.92.11,11.29.33L636,82.39q5.16-16.8,12.75-26T664.41,44V37.52Q654.74,38.48,639.54,38.47ZM425.48,71.08c-2-6.24-2.91-11.07-2.91-14.54,0-7.29,3.75-11.51,11.29-12.57V37.52q-12.57,1-39.7.95-28.76,0-48.12-.95V44q5.49.3,11,5.17c3.66,3.21,6.76,8.38,9.36,15.48l19.67,55,6.62,18.53,38.62,107.94A86,86,0,0,1,437.24,231q10.35-20,28.42-30.18c1.28-.72,2.57-1.39,3.88-2Z"/><path class="cls-1" d="M724.63,22.48q-7.92-6.61-21.49-6.62t-21.46,6.62q-7.92,6.63-7.91,18.25T681.68,59q7.92,6.62,21.46,6.62T724.63,59c5.25-4.42,7.91-10.51,7.91-18.25S729.88,26.9,724.63,22.48ZM733,254.32c-3.13-3.33-4.67-9.42-4.67-18.25V95.64q-18.39,4.48-47.13,4.49c-6.49,0-13.14-.3-20-.95V106q11.61,0,16.15,6.79t4.53,21.62v58.1c2.07.39,4,.83,5.95,1.36a43.15,43.15,0,0,1,19.39,11,35.89,35.89,0,0,1,9.53,17.43q2.38,10.35,2.4,28.11v14.73q11.4.29,29.87,1v-6.79C741.45,259.32,736.14,257.67,733,254.32Zm-60.38,11.37v-1.48a16.55,16.55,0,0,1-1,1.51C672,265.72,672.29,265.72,672.63,265.69Zm-11.46.42c.28,0,.56,0,.81,0,.87-.44,1.68-.92,2.43-1.37a17.54,17.54,0,0,0,6.54-6.59,35.2,35.2,0,0,1-9.78,1.2Z"/><path class="cls-1" d="M878.78,95c-.41,3.88-1.34,6.84-2.73,8.88s-3.08,3.07-5,3.07a10.43,10.43,0,0,1-5.81-2.26q-5.49-3.85-15.81-6.93a79.39,79.39,0,0,0-22.61-3.07q-23.26,0-39.4,11.93a41.79,41.79,0,0,0-7.4,7q20.84-.72,36-4.31v3.47a17,17,0,0,1,4.19-5.45c4.19-3.66,9.53-5.5,16-5.5q18.74,0,28.59,14.36T877.5,151.8h6.79q0-40.37,1.28-56.83Zm13.28,121.68a136.66,136.66,0,0,0-11.15,9.78l-20.68,21.32,8.3,13.89A50.15,50.15,0,0,0,884.12,248a40.7,40.7,0,0,0,8.24-25.17C892.36,220.7,892.25,218.64,892.06,216.65Zm-28.28-10.06c-4.53-2.9-10.54-4.58-18.08-5v-6.48c11.85.67,24.42,1,37.78,1h1.26c-.56-.78-1.12-1.57-1.74-2.32q-9.39-11.61-29.06-26.46l-9.36-6.79q-15.84-11.28-23.24-19.2a27.44,27.44,0,0,1-5.34-8.1v66.61c6,4.84,10.7,8.72,14,11.71a50.25,50.25,0,0,1,10.17,12.6,32.08,32.08,0,0,1,4,16.15q0,11.61-6.62,17.27a23.82,23.82,0,0,1-16,5.64,36.91,36.91,0,0,1-5.64-.39v6.35c1.26.28,2.51.5,3.83.67a35,35,0,0,0,7.32-2,23.65,23.65,0,0,0,8.21-5.81l24.54-23.92q10.68-10.65,10.67-19.67C870.57,213.41,868.31,209.5,863.78,206.59Z"/><path class="cls-1" d="M1093.83,259.07c-5.2-.53-9-2.12-11.46-4.75-3.13-3.33-4.67-9.42-4.67-18.25V149.23q0-16.47-2.26-26.15a35.23,35.23,0,0,0-7.77-15.82q-11-12.62-35.51-12.6-38.43,0-53,30V95.64q-18.4,4.48-47.14,4.49c-6.45,0-13.13-.3-20-.95V106q11.61,0,16.13,6.79t4.52,21.62V236.07q0,13.25-4.52,18.25c-3,3.35-8.39,5-16.13,5v6.79q34.88-1.31,44.54-1.28c.51,0,1,0,1.6,0a72.57,72.57,0,0,1-5.15-8,44.3,44.3,0,0,1-5.33-21.66q0-20.62,16.15-32.61a58.64,58.64,0,0,1,15.34-8.1V146.32c0-10.56,3.13-19.42,9.36-26.65s13.77-10.82,22.6-10.82q11.33,0,15.68,6.79t4.36,20v59.77a45.79,45.79,0,0,1,10.48,5.19,10.45,10.45,0,0,0,5.81,2.27c2,0,3.6-1,5-3.08s2.32-5,2.77-8.88H1062q-1.3,16.47-1.29,56.83H1054q-2.88-21.28-12.74-35.68a33.15,33.15,0,0,0-10-9.64v33.64c0,8.83-1.31,14.92-3.89,18.25a10.79,10.79,0,0,1-4.55,3.41,21.78,21.78,0,0,1-9,1.59v6.79q11-.42,19.42-.73,16.18-.54,22.55-.55,9.48,0,37.44,1.09c1.68.05,3.41.13,5.17.19v-6.79A37.43,37.43,0,0,1,1093.83,259.07Z"/><path class="cls-1" d="M1126.77,100.13c-6.68,0-13.36-.3-20-.95V106q11.28,0,16,6.79t4.66,21.62v66.95q18.24-10.73,44.4-10.7c.7,0,1.4,0,2.1,0v-95Q1154.88,100.13,1126.77,100.13ZM1291.6,259.32c-7.46,0-12.71-2.29-15.81-6.76s-4.67-11.74-4.67-21.66V95.64q-19.06,4.48-47.17,4.49c-6.45,0-13.13-.3-20-.95V106c7.51,0,12.85,2.26,16,6.79s4.69,11.73,4.69,21.62V207a59.86,59.86,0,0,1,5.31,4.77q17.94,18,20.51,54.13c6.6-.51,13.72-.76,21.32-.76,6.6,0,13.22.34,19.84.95a.34.34,0,0,0,.17,0v-6.79Zm-98.3-2.9c-7.54,0-12.66-2.27-15.34-6.77s-4-11.31-4-20.34v-32.1a12,12,0,0,0-2.1-.14q-13.87,0-22.13,20.17-6.45,15.93-7.85,44.93c7.29,5.65,17.58,8.47,30.79,8.47q17,0,29.29-6.26c-.14-3.16-.31-6.2-.53-9.14A27.66,27.66,0,0,1,1193.3,256.42Z"/><path class="cls-2" d="M324.57,133.45v6.46q-8.07,3.22-15.66,12.43t-12.75,26L239.33,362.71q-3.56-.33-11.3-.33t-11.3.33l-47.47-144-47.79,144c-2.37-.22-6.13-.33-11.3-.33s-8.93.11-11.3.33L26.54,160.58q-3.87-10.67-9.36-15.5t-11-5.17v-6.46q19.38,1,48.11,1,27.12,0,39.72-1v6.46q-11.31,1.62-11.3,12.59,0,5.17,2.9,14.53l47.14,136.59,32.62-96.23-16.47-50q-3.24-9.36-7.59-13.08a18.5,18.5,0,0,0-10.17-4.36v-6.46q18.08,1,46.17,1,31.65,0,46.5-1v6.46q-11.62.33-16.79,2.75t-5.17,9.2q0,5.8,3.23,15.17l44.24,135L280,204.49q7.42-24.23,7.43-37.46,0-13.87-6.94-20.18t-20.83-6.94v-6.46q22,1,40,1Q314.88,134.42,324.57,133.45Z"/><path class="cls-2" d="M388.5,332q0,13.25,4.68,18.24t16,5v6.78q-32.28-1.29-42.94-1.29-10,0-44.88,1.29v-6.78q11.63,0,16.14-5T342,332V230.32q0-14.85-4.52-21.63t-16.14-6.79v-6.78q10.32,1,20,1,28.72,0,47.14-4.52Zm-3.71-213.59q7.9,6.61,7.91,18.24t-7.91,18.24q-7.92,6.63-21.48,6.62t-21.47-6.62q-7.9-6.61-7.91-18.24t7.91-18.24q7.91-6.61,21.47-6.62T384.79,118.44Z"/><path class="cls-2" d="M560.91,313.61q-9,14.55-20.17,20.34a47.38,47.38,0,0,1-22.13,5.82c-12.27,0-22.49-5-30.65-15.18s-12.3-26.68-12.3-49.7q0-34.24,10.84-55.39t30.18-21.15a31,31,0,0,1,11.46,2.1,17.27,17.27,0,0,1,7.91,5.64,31.13,31.13,0,0,0-15.18,9.7,24.94,24.94,0,0,0-6.12,16.79q0,11,6.77,17.44c4.52,4.3,10.56,6.45,18.07,6.45a26.49,26.49,0,0,0,12.61-2.91L532.58,194c-1-.27-2-.53-3-.78a96.83,96.83,0,0,0-22.6-2.57A90.64,90.64,0,0,0,485.78,193L461.3,266.75c-2.37-.22-6.12-.33-11.29-.33s-8.94.11-11.31.33l-7.41-20.7a118.7,118.7,0,0,0-4.36,33.36q0,43.26,21,65.22t54.23,22q25.53,0,41.66-15a81,81,0,0,0,22.61-36ZM469.54,198.77l3.08,8.89,4.05-11.94A66.72,66.72,0,0,0,469.54,198.77Z"/><path class="cls-3" d="M565.11,230.65c0,7.52-2.35,13.72-7.1,18.56a24,24,0,0,1-5.81,4.35L532.58,194a56.54,56.54,0,0,1,14.78,6.32,38.42,38.42,0,0,1,13.08,13.08A33.52,33.52,0,0,1,565.11,230.65Z"/><path class="cls-3" d="M485.78,193,461.3,266.75c-2.37-.22-6.12-.33-11.29-.33s-8.94.11-11.31.33l-7.41-20.7A86,86,0,0,1,437.24,231q10.35-20,28.42-30.18c1.28-.72,2.57-1.39,3.88-2l3.08,8.89,4.05-11.94A73.28,73.28,0,0,1,485.78,193Z"/><path class="cls-2" d="M737.87,346.89q-6.78,5.49-11.65,5.48c-2.79,0-4.67-1.06-5.64-3.22s-1.46-5.81-1.46-11V265.08q-8.5-.25-13.07-.25c-5.51,0-16.63.28-33.42.86v64.72q-9.35,13.24-22,13.24a18.4,18.4,0,0,1-14.53-6.29q-5.49-6.28-5.47-19.53c0-10.11,2.15-17.88,6.45-23.25s10.65-10.75,19.06-16.15c7.43-4.58,12.6-8.8,15.45-12.71-3,.11-6.23.25-9.64.36q-8.25,4.49-23.58,9.75a277.87,277.87,0,0,0-27.61,11,52,52,0,0,0-18.38,14.69q-7.59,9.53-7.61,24.06,0,17.44,10.18,28.08t30.84,10.68q31.32,0,47.45-26.16.33,12,7.43,19c4.75,4.75,13,7.13,24.87,7.13q21,0,35.52-12Zm-121.1-93.33a26.62,26.62,0,0,0,18.08-6.45q7.42-6.45,7.43-17.44a24.09,24.09,0,0,0-5-15.17,30.06,30.06,0,0,0-14-9.69q8.09-7.76,23.58-7.74,13.25,0,19.53,7.57c4.19,5.06,6.29,12.13,6.29,21.15V251a15.34,15.34,0,0,1-1.68,7.13,14,14,0,0,0,6.37-3.8q4.53-5,4.53-18.25V192.46a113.83,113.83,0,0,0-21.49-1.85,124.18,124.18,0,0,0-27.91,2.91A73.67,73.67,0,0,0,611,201.59c-6,3.66-10.48,7.58-13.39,11.77a26.42,26.42,0,0,0-4.35,15.34q0,10.68,6.11,17.77T616.77,253.56Z"/><path class="cls-3" d="M719.12,250.35v14.73q-8.5-.25-13.07-.25c-5.51,0-16.63.28-33.42.86v-1.48a16.55,16.55,0,0,1-1,1.51c-3,.11-6.23.25-9.64.36.87-.44,1.68-.92,2.43-1.37a17.54,17.54,0,0,0,6.54-6.59,14,14,0,0,0,6.37-3.8q4.53-5,4.53-18.25V192.46c2.07.39,4,.83,5.95,1.36a43.15,43.15,0,0,1,19.39,11,35.89,35.89,0,0,1,9.53,17.43Q719.1,232.59,719.12,250.35Z"/><path class="cls-2" d="M813.9,122.43a27.35,27.35,0,0,0,2.1,10.79V112.71A21.29,21.29,0,0,0,813.9,122.43ZM922.88,350a125.56,125.56,0,0,1-8.41-11.49l-45.94-76.84a59.56,59.56,0,0,1-6.51,3.19,79.29,79.29,0,0,1-30.68,5.81,75.53,75.53,0,0,1-11.51-.81c-1.21.22-2.49.39-3.83.53v-1.2a53.08,53.08,0,0,1-15-5.31,162.36,162.36,0,0,0-14.86-6.79c-2.15-.64-4,.05-5.65,2.12s-2.85,5.11-3.71,9.19H770q1.29-18.39,1.28-64.57h6.79q6,54.69,38,59v-63c-1.37-1.12-2.82-2.26-4.36-3.46q-14.55-11.61-22.13-18.72a67.23,67.23,0,0,1-12.91-16.8,44.1,44.1,0,0,1-5.34-21.62q0-15.22,8.75-25.68c-3.58.14-7.29.19-11.15.19-6.45,0-13.13-.3-20-.95v6.76c7.54,0,12.88,2.27,16,6.79s4.69,11.74,4.69,21.63V332q0,13.25-4.69,18.24c-3.1,3.36-8.44,5-16,5v6.79q33.57-1.29,44.56-1.28,9.69,0,42,1.28v-6.79c-7.32,0-12.38-1.64-15.17-5S816,340.86,816,332V276.51a24.34,24.34,0,0,1,9,2.57c2.38,1.28,4.64,3.77,6.79,7.43l32,57.78a12.22,12.22,0,0,1,1.62,4.86,5,5,0,0,1-2.6,4.5,13.14,13.14,0,0,1-7.1,1.62v6.79q31-1.29,41.67-1.28c5.36,0,16.68.42,33.89,1.28v-6.79A17.92,17.92,0,0,1,922.88,350Zm-1.62-148.38v-6.48q-10.74,1-36.52,1a43.59,43.59,0,0,1,7.32,20.56Q907.27,204.67,921.26,201.59Z"/><path class="cls-3" d="M880.91,226.43l-20.68,21.32,8.3,13.89a59.56,59.56,0,0,1-6.51,3.19,79.29,79.29,0,0,1-30.68,5.81,75.53,75.53,0,0,1-11.51-.81,35,35,0,0,0,7.32-2,23.65,23.65,0,0,0,8.21-5.81l24.54-23.92q10.68-10.65,10.67-19.67c0-5-2.26-8.89-6.79-11.8s-10.54-4.58-18.08-5v-6.48c11.85.67,24.42,1,37.78,1h1.26a43.59,43.59,0,0,1,7.32,20.56A136.66,136.66,0,0,0,880.91,226.43Z"/><path class="cls-3" d="M816,112.71a21.29,21.29,0,0,0-2.1,9.72,27.35,27.35,0,0,0,2.1,10.79v66.61c-1.37-1.12-2.82-2.26-4.36-3.46q-14.55-11.61-22.13-18.72a67.23,67.23,0,0,1-12.91-16.8,44.1,44.1,0,0,1-5.34-21.62q0-15.22,8.75-25.68,20.84-.72,36-4.31Z"/><path class="cls-3" d="M816,262.81v6.35a53.08,53.08,0,0,1-15-5.31,162.36,162.36,0,0,0-14.86-6.79c-2.15-.64-4,.05-5.65,2.12s-2.85,5.11-3.71,9.19H770q1.29-18.39,1.28-64.57h6.79Q784,258.49,816,262.81Z"/><path class="cls-2" d="M1059.46,289.72q-8.71-10.77-26.27-24.34l-2.79-2.12-7.63-5.53-1.73-1.26q-15.84-11.28-23.25-19.22a26.47,26.47,0,0,1-7.43-18.86c0-6.49,2.09-11.52,6.28-15.2s9.53-5.48,16-5.48c7.18,0,13.35,1.56,18.58,4.72v-7c-1.65-.59-3.44-1.18-5.34-1.73a78.31,78.31,0,0,0-22.6-3.08,72.45,72.45,0,0,0-24.06,3.83v41.63c0,8.83,1.28,14.92,3.88,18.25s7.1,5,13.55,5v6.79q-27.57-1.22-38.44-1.26A66.36,66.36,0,0,0,966,273.6q7.59,7.08,22.13,18.72c8.19,6.46,14.31,11.51,18.42,15.17a50.3,50.3,0,0,1,10.17,12.61,32.11,32.11,0,0,1,4,16.12c0,7.77-2.21,13.52-6.62,17.29a23.85,23.85,0,0,1-16,5.65q-37.14,0-43.59-59.41h-6.79q0,46.15-1.29,64.58h6.79c.87-4.11,2.1-7.16,3.72-9.22s3.49-2.74,5.64-2.1a162.2,162.2,0,0,1,14.87,6.79q12.57,6.79,30.34,6.79a79.25,79.25,0,0,0,30.68-5.81A52.17,52.17,0,0,0,1060.58,344a40.89,40.89,0,0,0,8.24-25.21Q1068.82,301.35,1059.46,289.72Z"/><path class="cls-3" d="M1062,190.92q-1.3,16.47-1.29,56.83H1054q-2.88-21.28-12.74-35.68a33.15,33.15,0,0,0-10-9.64v-7a45.79,45.79,0,0,1,10.48,5.19,10.45,10.45,0,0,0,5.81,2.27c2,0,3.6-1,5-3.08s2.32-5,2.77-8.88Z"/><path class="cls-3" d="M996.64,259.32v6.79q-27.57-1.22-38.44-1.26a72.57,72.57,0,0,1-5.15-8,44.3,44.3,0,0,1-5.33-21.66q0-20.62,16.15-32.61a58.64,58.64,0,0,1,15.34-8.1v41.63c0,8.83,1.28,14.92,3.88,18.25S990.19,259.32,996.64,259.32Z"/><path class="cls-2" d="M1250.44,265.89a165.64,165.64,0,0,0-25.82,3.77V240.6q-8.08,16.3-22.71,23.78.24,6.83.25,14.36,0,41.67-8.08,61.53t-22.27,19.84q-13.87,0-22.13-20t-8.21-61.36c0-5.84.11-11.37.36-16.57a29.83,29.83,0,0,1-4.41-4.13q-5.16-6.12-7.58-16t-2.43-26V201.31a66.43,66.43,0,0,0-13.55,10.45q-16.35,16.31-20,47.31c-.28,2.23-.51,4.5-.65,6.85-.33,4.1-.47,8.38-.47,12.82q0,45.86,21.15,66.84t58,21q37.14,0,58.12-21t21-66.84C1250.92,274.27,1250.78,270,1250.44,265.89Zm-56.5-48.82q5.7,13.88,7.44,38.17a29.71,29.71,0,0,0,14-9.64q9.22-10.82,9.22-26.63V207q-19.53-15.88-50.71-16.35v6.57C1182.18,198.13,1188.86,204.78,1193.94,217.07Z"/><path class="cls-3" d="M1224.62,269.66V240.6q-8.08,16.3-22.71,23.78c-.14-3.16-.31-6.2-.53-9.14a29.71,29.71,0,0,0,14-9.64q9.22-10.82,9.22-26.63V207a59.86,59.86,0,0,1,5.31,4.77q17.94,18,20.51,54.13A165.64,165.64,0,0,0,1224.62,269.66Z"/><path class="cls-3" d="M1173.91,190.64v6.57a12,12,0,0,0-2.1-.14q-13.87,0-22.13,20.17-6.45,15.93-7.85,44.93a29.83,29.83,0,0,1-4.41-4.13q-5.16-6.12-7.58-16t-2.43-26V201.31q18.24-10.73,44.4-10.7C1172.51,190.61,1173.21,190.61,1173.91,190.64Z"/><path class="cls-2" d="M1426.57,203.2a35.26,35.26,0,0,1,7.75,15.82q2.25,9.69,2.26,26.15V332q0,13.25,4.68,18.24t16,5v6.78q-32.3-1.29-42.63-1.29-9.67,0-42,1.29v-6.78q9.69,0,13.56-5t3.87-18.24V231.61q0-13.23-4.35-20t-15.66-6.78q-13.24,0-22.61,10.82t-9.36,26.64V332q0,13.25,3.87,18.24t13.56,5v6.78q-29.7-1.29-40-1.29-9.69,0-44.56,1.29v-6.78q11.63,0,16.14-5T1291.6,332V230.32q0-14.85-4.52-21.63t-16.14-6.79v-6.78q10.32,1,20,1,28.72,0,47.14-4.52v29.06q14.54-30,53-30Q1415.59,190.6,1426.57,203.2Z"/><path class="cls-2" d="M1610.62,211.75q21,21.15,21,67t-21,66.84q-21,21-58.12,21-36.81,0-58-21t-21.15-66.84q0-45.84,21.15-67t58-21.15Q1589.63,190.6,1610.62,211.75Zm-80.24,5.49q-8.24,20.19-8.23,61.51t8.23,61.35q8.23,20,22.12,20,14.2,0,22.28-19.86t8.07-61.51q0-41.66-8.24-61.67t-22.11-20Q1538.61,197.06,1530.38,217.24Z"/></svg>