<svg id="Layer_1" data-name="Layer 1" xmlns="http://www.w3.org/2000/svg" viewBox="0 0 582.2 125.77"><defs><style>.cls-1{fill:#fff;}.cls-2{fill:none;stroke:#ff5b38;stroke-miterlimit:10;stroke-width:0.5px;}.cls-3{fill:#ff5b38;}</style></defs><path class="cls-1" d="M226.91,8.09q-6.48,0-14.33-.34v2.31c3.31.15,5.8,1,7.45,2.48s2.49,3.91,2.49,7.22q0,4.74-2.66,13.41l-11,34.9L193.05,19.76a17.53,17.53,0,0,1-1.15-5.43A3.28,3.28,0,0,1,193.75,11a16,16,0,0,1,6-1V7.75q-5.31.35-16.64.34-10.05,0-16.52-.34v2.31a6.54,6.54,0,0,1,3.64,1.56,10.61,10.61,0,0,1,2.71,4.68l5.9,17.91L168.62,64.37a26.73,26.73,0,0,1,3.26-1l8.35-25.14,8.4,25.49A20.2,20.2,0,0,1,193.92,66a13.78,13.78,0,0,1,4.68,4.68,12,12,0,0,1,1.67,6.19,9.08,9.08,0,0,1-2.54,6.64,8.65,8.65,0,0,1-2.08,1.56l1.56,4.72q1.28-.12,4-.12c1.85,0,3.19,0,4,.12l20.34-66a27,27,0,0,1,4.56-9.3,14.43,14.43,0,0,1,5.61-4.45V7.75Q232.35,8.1,226.91,8.09ZM150.3,19.76a18.67,18.67,0,0,1-1-5.2c0-2.61,1.34-4.12,4-4.5V7.75q-4.5.35-14.21.34-10.29,0-17.22-.34v2.31a6.52,6.52,0,0,1,3.93,1.85,13.4,13.4,0,0,1,3.35,5.54l7,19.67,2.37,6.63,13.82,38.63a30.66,30.66,0,0,1,2.13-5.4,25.4,25.4,0,0,1,10.17-10.8c.46-.26.92-.5,1.39-.72Z"/><path class="cls-1" d="M257.36,2.37a13.64,13.64,0,0,0-15.37,0,8.05,8.05,0,0,0-2.83,6.53A8.05,8.05,0,0,0,242,15.43a13.64,13.64,0,0,0,15.37,0,8.08,8.08,0,0,0,2.83-6.53A8.08,8.08,0,0,0,257.36,2.37Zm3,83c-1.12-1.19-1.67-3.37-1.67-6.53V28.55a73.16,73.16,0,0,1-16.87,1.61c-2.32,0-4.7-.11-7.17-.34v2.42q4.15,0,5.78,2.43t1.62,7.74V63.2c.74.14,1.45.3,2.13.49a15.42,15.42,0,0,1,6.94,3.93,12.84,12.84,0,0,1,3.41,6.24,46.65,46.65,0,0,1,.86,10.06v5.27q4.08.11,10.69.37V87.13C263.38,87.13,261.48,86.54,260.36,85.34Zm-21.61,4.07v-.53a5.63,5.63,0,0,1-.36.54Zm-4.1.15h.29c.31-.16.6-.33.87-.49a6.28,6.28,0,0,0,2.34-2.36,12.57,12.57,0,0,1-3.5.43Z"/><path class="cls-1" d="M312.53,28.31a7,7,0,0,1-1,3.18,2.14,2.14,0,0,1-1.79,1.1,3.74,3.74,0,0,1-2.08-.81A19.87,19.87,0,0,0,302,29.3a28.41,28.41,0,0,0-8.09-1.1,23,23,0,0,0-14.1,4.27A15.05,15.05,0,0,0,277.18,35a66.16,66.16,0,0,0,12.88-1.54v1.24a6.14,6.14,0,0,1,1.5-1.95,8.39,8.39,0,0,1,5.72-2,11.65,11.65,0,0,1,10.23,5.14,29.25,29.25,0,0,1,4.56,12.77h2.43q0-14.44.46-20.34Zm4.75,43.55a49,49,0,0,0-4,3.5L305.89,83l3,5a18,18,0,0,0,5.58-4.87,14.58,14.58,0,0,0,2.95-9C317.39,73.31,317.35,72.57,317.28,71.86Zm-10.12-3.6a13.22,13.22,0,0,0-6.47-1.79V64.15q6.36.36,13.52.35h.45c-.2-.28-.4-.56-.62-.83a59.94,59.94,0,0,0-10.4-9.47l-3.35-2.43A57.47,57.47,0,0,1,292,44.9a9.79,9.79,0,0,1-1.91-2.9V65.84c2.16,1.73,3.83,3.12,5,4.19a18,18,0,0,1,3.64,4.51,11.5,11.5,0,0,1,1.44,5.78q0,4.16-2.37,6.18a8.51,8.51,0,0,1-5.72,2,13.26,13.26,0,0,1-2-.14v2.27c.45.1.9.18,1.37.24a12.29,12.29,0,0,0,2.62-.73A8.45,8.45,0,0,0,297,88.08l8.78-8.56q3.83-3.81,3.82-7A4.79,4.79,0,0,0,307.16,68.26Z"/><path class="cls-1" d="M389.49,87a6.29,6.29,0,0,1-4.1-1.7c-1.12-1.19-1.67-3.37-1.67-6.53V47.73a42.87,42.87,0,0,0-.81-9.36,12.6,12.6,0,0,0-2.78-5.66q-3.93-4.52-12.71-4.51-13.76,0-18.95,10.75V28.55a73.1,73.1,0,0,1-16.87,1.61q-3.47,0-7.16-.34v2.42q4.15,0,5.77,2.43t1.62,7.74v36.4q0,4.74-1.62,6.53c-1.08,1.2-3,1.79-5.77,1.79v2.43q12.48-.47,15.94-.46H341a26.18,26.18,0,0,1-1.84-2.88,15.81,15.81,0,0,1-1.91-7.75A13.76,13.76,0,0,1,343,66.81a20.91,20.91,0,0,1,5.49-2.9V46.69a14.1,14.1,0,0,1,3.35-9.54,10.35,10.35,0,0,1,8.09-3.87q4.05,0,5.61,2.43t1.56,7.16V64.26a16.34,16.34,0,0,1,3.75,1.86,3.74,3.74,0,0,0,2.08.81,2.15,2.15,0,0,0,1.79-1.1,7.1,7.1,0,0,0,1-3.18h2.42q-.47,5.9-.46,20.34h-2.43a29.25,29.25,0,0,0-4.56-12.77,11.84,11.84,0,0,0-3.58-3.45v12c0,3.16-.47,5.34-1.39,6.53a3.88,3.88,0,0,1-1.63,1.22,7.8,7.8,0,0,1-3.22.57v2.43l7-.26q5.79-.19,8.07-.2,3.39,0,13.4.39l1.85.07V87.13A13.63,13.63,0,0,1,389.49,87Z"/><path class="cls-1" d="M401.28,30.16q-3.58,0-7.16-.34v2.42q4,0,5.72,2.43t1.67,7.74v24q6.53-3.84,15.89-3.83h.75v-34A75,75,0,0,1,401.28,30.16Zm59,57c-2.67,0-4.55-.82-5.66-2.42s-1.67-4.2-1.67-7.75V28.55a75.07,75.07,0,0,1-16.88,1.61q-3.46,0-7.16-.34v2.42q4,0,5.72,2.43c1.11,1.62,1.68,4.2,1.68,7.74v26a21.89,21.89,0,0,1,1.9,1.71q6.42,6.45,7.34,19.37c2.36-.18,4.91-.27,7.63-.27,2.36,0,4.73.12,7.1.34h.06V87.13Zm-35.18-1q-4.05,0-5.49-2.42t-1.45-7.28V64.9a4.57,4.57,0,0,0-.75-.05q-5,0-7.92,7.22-2.31,5.7-2.81,16.08,3.91,3,11,3a22.92,22.92,0,0,0,10.48-2.24c-.05-1.13-.11-2.22-.19-3.27A9.85,9.85,0,0,1,425.09,86.09Z"/><path class="cls-2" d="M114.19,42.08V44.4a14.49,14.49,0,0,0-5.61,4.44A27.18,27.18,0,0,0,104,58.15l-20.34,66c-.85-.08-2.19-.12-4-.12s-3.2,0-4,.12l-17-51.54L41.5,124.13c-.84-.08-2.19-.12-4-.12s-3.2,0-4,.12L7.53,51.79a13.41,13.41,0,0,0-3.35-5.55A6.56,6.56,0,0,0,.25,44.4V42.08q6.93.36,17.22.35,9.71,0,14.21-.35V44.4c-2.7.38-4,1.88-4,4.5a18.67,18.67,0,0,0,1,5.2L45.55,103,57.22,68.55,51.33,50.64A10.72,10.72,0,0,0,48.61,46,6.6,6.6,0,0,0,45,44.4V42.08q6.47.36,16.53.35,11.31,0,16.64-.35V44.4a16,16,0,0,0-6,1,3.27,3.27,0,0,0-1.85,3.29,17.53,17.53,0,0,0,1.15,5.43l15.83,48.3,11-34.89q2.66-8.67,2.66-13.41,0-5-2.48-7.22T91,44.4V42.08q7.86.36,14.33.35C108.91,42.43,111.88,42.32,114.19,42.08Z"/><path class="cls-2" d="M137.07,113.15q0,4.74,1.67,6.53c1.12,1.2,3,1.79,5.72,1.79v2.43q-11.55-.47-15.37-.46-3.57,0-16.06.46v-2.43c2.78,0,4.7-.59,5.78-1.79s1.62-3.37,1.62-6.53V76.75q0-5.31-1.62-7.74c-1.08-1.62-3-2.43-5.78-2.43V64.15c2.47.24,4.86.35,7.17.35a72.54,72.54,0,0,0,16.87-1.62Zm-1.33-76.44a8.05,8.05,0,0,1,2.83,6.53,8.05,8.05,0,0,1-2.83,6.53,13.64,13.64,0,0,1-15.37,0,8.05,8.05,0,0,1-2.83-6.53,8.05,8.05,0,0,1,2.83-6.53,13.64,13.64,0,0,1,15.37,0Z"/><path class="cls-2" d="M198.77,106.56a19.4,19.4,0,0,1-7.22,7.28,17,17,0,0,1-7.92,2.08,13.52,13.52,0,0,1-11-5.43q-4.4-5.43-4.4-17.79t3.88-19.82q3.87-7.57,10.8-7.57a11.1,11.1,0,0,1,4.1.75,6.2,6.2,0,0,1,2.83,2,11.16,11.16,0,0,0-5.43,3.47,8.92,8.92,0,0,0-2.19,6,8.23,8.23,0,0,0,2.42,6.24,9,9,0,0,0,6.47,2.31,9.47,9.47,0,0,0,4.51-1l-7-21.33c-.34-.1-.7-.19-1.07-.28a34.57,34.57,0,0,0-8.09-.92,32.57,32.57,0,0,0-7.59.85l-8.76,26.4c-.85-.08-2.19-.12-4-.12s-3.2,0-4.05.12l-2.65-7.41a42.53,42.53,0,0,0-1.56,11.94q0,15.48,7.51,23.34t19.41,7.86q9.13,0,14.91-5.38a29,29,0,0,0,8.09-12.88Zm-32.7-41.1,1.1,3.18,1.45-4.27A23.83,23.83,0,0,0,166.07,65.46Z"/><path class="cls-3" d="M200.27,76.87a9.08,9.08,0,0,1-2.54,6.64,8.65,8.65,0,0,1-2.08,1.56l-7-21.33A20.2,20.2,0,0,1,193.92,66a13.78,13.78,0,0,1,4.68,4.68A12,12,0,0,1,200.27,76.87Z"/><path class="cls-3" d="M171.88,63.39l-8.76,26.4c-.85-.08-2.19-.12-4-.12s-3.2,0-4.05.12l-2.65-7.41a30.66,30.66,0,0,1,2.13-5.4,25.4,25.4,0,0,1,10.17-10.8c.46-.26.92-.5,1.39-.72l1.1,3.18,1.45-4.27A26.73,26.73,0,0,1,171.88,63.39Z"/><path class="cls-2" d="M262.1,118.47a7.16,7.16,0,0,1-4.17,2,2,2,0,0,1-2-1.15,10.63,10.63,0,0,1-.52-3.93V89.19q-3-.09-4.68-.09-3,0-12,.31v23.16q-3.34,4.74-7.86,4.74a6.57,6.57,0,0,1-5.2-2.25q-2-2.25-2-7c0-3.62.77-6.4,2.31-8.32A28,28,0,0,1,232.86,94a19.68,19.68,0,0,0,5.53-4.55l-3.45.13A58.16,58.16,0,0,1,226.5,93,99.31,99.31,0,0,0,216.62,97a18.64,18.64,0,0,0-6.58,5.26,13.38,13.38,0,0,0-2.72,8.61,13.93,13.93,0,0,0,3.64,10q3.64,3.83,11,3.82,11.2,0,17-9.36a9.61,9.61,0,0,0,2.66,6.81c1.7,1.7,4.66,2.55,8.9,2.55a19.36,19.36,0,0,0,12.71-4.28Zm-43.34-33.4a9.52,9.52,0,0,0,6.47-2.31,7.85,7.85,0,0,0,2.66-6.24,8.63,8.63,0,0,0-1.79-5.43,10.76,10.76,0,0,0-5-3.47q2.9-2.78,8.44-2.77,4.74,0,7,2.71c1.5,1.81,2.25,4.34,2.25,7.57v9a5.48,5.48,0,0,1-.6,2.55,5,5,0,0,0,2.28-1.36q1.62-1.78,1.62-6.53V63.2a40.75,40.75,0,0,0-7.69-.66,44.54,44.54,0,0,0-10,1,26.33,26.33,0,0,0-7.69,2.89,15.43,15.43,0,0,0-4.79,4.21,10.38,10.38,0,0,0,.63,11.85A7.8,7.8,0,0,0,218.76,85.07Z"/><path class="cls-3" d="M255.39,83.92v5.27q-3-.09-4.68-.09-3,0-12,.31v-.53a5.63,5.63,0,0,1-.36.54l-3.45.13c.31-.16.6-.33.87-.49a6.28,6.28,0,0,0,2.34-2.36,5,5,0,0,0,2.28-1.36q1.62-1.78,1.62-6.53V63.2c.74.14,1.45.3,2.13.49a15.42,15.42,0,0,1,6.94,3.93,12.84,12.84,0,0,1,3.41,6.24A46.65,46.65,0,0,1,255.39,83.92Z"/><path class="cls-2" d="M289.31,38.14a9.8,9.8,0,0,0,.75,3.86V34.66A7.63,7.63,0,0,0,289.31,38.14Zm39,81.43a44.94,44.94,0,0,1-3-4.11L308.86,88a21,21,0,0,1-2.33,1.14,28.34,28.34,0,0,1-11,2.08,27.1,27.1,0,0,1-4.12-.29c-.43.08-.89.14-1.37.19v-.43a19,19,0,0,1-5.37-1.9q-3.7-1.84-5.32-2.43a1.77,1.77,0,0,0-2,.76A8,8,0,0,0,276,90.37h-2.43q.46-6.59.46-23.11h2.43q2.13,19.58,13.58,21.12V65.84c-.49-.4-1-.81-1.56-1.24q-5.21-4.15-7.92-6.7a24.09,24.09,0,0,1-4.62-6,15.8,15.8,0,0,1-1.91-7.74A13.84,13.84,0,0,1,277.18,35c-1.28,0-2.61.07-4,.07q-3.46,0-7.17-.34v2.42q4.05,0,5.72,2.43t1.68,7.74v65.87q0,4.74-1.68,6.53c-1.11,1.2-3,1.79-5.72,1.79v2.43q12-.47,16-.46,3.46,0,15,.46v-2.43c-2.62,0-4.43-.59-5.43-1.79s-1.5-3.37-1.5-6.53V93.28a8.83,8.83,0,0,1,3.23.92,6.87,6.87,0,0,1,2.43,2.66l11.44,20.68a4.36,4.36,0,0,1,.58,1.74,1.79,1.79,0,0,1-.93,1.61,4.71,4.71,0,0,1-2.54.58v2.43q11.1-.47,14.91-.46,2.88,0,12.13.46v-2.43A6.41,6.41,0,0,1,328.31,119.57Zm-.58-53.1V64.15q-3.84.34-13.07.35a15.59,15.59,0,0,1,2.62,7.36A26.36,26.36,0,0,1,327.73,66.47Z"/><path class="cls-3" d="M313.29,75.36,305.89,83l3,5a21,21,0,0,1-2.33,1.14,28.34,28.34,0,0,1-11,2.08,27.1,27.1,0,0,1-4.12-.29,12.29,12.29,0,0,0,2.62-.73A8.45,8.45,0,0,0,297,88.08l8.78-8.56q3.83-3.81,3.82-7a4.79,4.79,0,0,0-2.43-4.22,13.22,13.22,0,0,0-6.47-1.79V64.15q6.36.36,13.52.35h.45a15.59,15.59,0,0,1,2.62,7.36A49,49,0,0,0,313.29,75.36Z"/><path class="cls-3" d="M290.06,34.66a7.63,7.63,0,0,0-.75,3.48,9.8,9.8,0,0,0,.75,3.86V65.84c-.49-.4-1-.81-1.56-1.24q-5.21-4.15-7.92-6.7a24.09,24.09,0,0,1-4.62-6,15.8,15.8,0,0,1-1.91-7.74A13.84,13.84,0,0,1,277.18,35a66.16,66.16,0,0,0,12.88-1.54Z"/><path class="cls-3" d="M290.06,88.38v2.27a19,19,0,0,1-5.37-1.9q-3.7-1.84-5.32-2.43a1.77,1.77,0,0,0-2,.76A8,8,0,0,0,276,90.37h-2.43q.46-6.59.46-23.11h2.43Q278.61,86.84,290.06,88.38Z"/><path class="cls-2" d="M377.19,98a57,57,0,0,0-9.4-8.71l-1-.76-2.73-2-.62-.45a57.41,57.41,0,0,1-8.32-6.88,9.46,9.46,0,0,1-2.66-6.75A6.85,6.85,0,0,1,354.71,67a8.38,8.38,0,0,1,5.72-2,12.59,12.59,0,0,1,6.65,1.69V64.26c-.59-.21-1.23-.42-1.91-.62a28.06,28.06,0,0,0-8.09-1.1,25.92,25.92,0,0,0-8.61,1.37v14.9q0,4.74,1.39,6.53c.92,1.2,2.54,1.79,4.85,1.79v2.43q-9.87-.44-13.76-.45a23.81,23.81,0,0,0,2.78,3.13q2.72,2.54,7.92,6.7,4.39,3.47,6.59,5.43a18,18,0,0,1,3.64,4.51,11.49,11.49,0,0,1,1.44,5.77q0,4.17-2.37,6.19a8.54,8.54,0,0,1-5.72,2q-13.29,0-15.6-21.26H337.2q0,16.52-.46,23.11h2.43a8,8,0,0,1,1.33-3.3,1.78,1.78,0,0,1,2-.75q1.62.59,5.32,2.43a22.57,22.57,0,0,0,10.86,2.43,28.34,28.34,0,0,0,11-2.08,18.64,18.64,0,0,0,7.91-6,14.61,14.61,0,0,0,3-9A16.08,16.08,0,0,0,377.19,98Z"/><path class="cls-3" d="M378.11,62.65q-.47,5.9-.46,20.34h-2.43a29.25,29.25,0,0,0-4.56-12.77,11.84,11.84,0,0,0-3.58-3.45V64.26a16.34,16.34,0,0,1,3.75,1.86,3.74,3.74,0,0,0,2.08.81,2.15,2.15,0,0,0,1.79-1.1,7.1,7.1,0,0,0,1-3.18Z"/><path class="cls-3" d="M354.71,87.13v2.43q-9.87-.44-13.76-.45a26.18,26.18,0,0,1-1.84-2.88,15.81,15.81,0,0,1-1.91-7.75A13.76,13.76,0,0,1,343,66.81a20.91,20.91,0,0,1,5.49-2.9v14.9q0,4.74,1.39,6.53C350.78,86.54,352.4,87.13,354.71,87.13Z"/><path class="cls-2" d="M445.54,89.48a59.54,59.54,0,0,0-9.24,1.35V80.43a18.38,18.38,0,0,1-8.13,8.51c.06,1.63.09,3.34.09,5.14q0,14.91-2.89,22t-8,7.1q-5,0-7.92-7.16t-2.94-22q0-3.14.13-5.93a10.57,10.57,0,0,1-1.58-1.48A13.92,13.92,0,0,1,402.38,81a40.15,40.15,0,0,1-.87-9.3V66.37a23.7,23.7,0,0,0-4.85,3.74q-5.85,5.83-7.17,16.93c-.1.8-.18,1.61-.23,2.45-.12,1.47-.17,3-.17,4.59q0,16.41,7.57,23.92t20.74,7.52q13.29,0,20.8-7.52t7.51-23.92C445.71,92.48,445.66,91,445.54,89.48ZM425.32,72q2,5,2.66,13.66a10.66,10.66,0,0,0,5-3.45,14.19,14.19,0,0,0,3.3-9.53V68.4q-7-5.69-18.15-5.85V64.9C421.11,65.23,423.5,67.61,425.32,72Z"/><path class="cls-3" d="M436.3,90.83V80.43a18.38,18.38,0,0,1-8.13,8.51c-.05-1.13-.11-2.22-.19-3.27a10.66,10.66,0,0,0,5-3.45,14.19,14.19,0,0,0,3.3-9.53V68.4a21.89,21.89,0,0,1,1.9,1.71q6.42,6.45,7.34,19.37A59.54,59.54,0,0,0,436.3,90.83Z"/><path class="cls-3" d="M418.15,62.55V64.9a4.57,4.57,0,0,0-.75-.05q-5,0-7.92,7.22-2.31,5.7-2.81,16.08a10.57,10.57,0,0,1-1.58-1.48A13.92,13.92,0,0,1,402.38,81a40.15,40.15,0,0,1-.87-9.3V66.37q6.53-3.84,15.89-3.83Z"/><path class="cls-2" d="M508.58,67a12.79,12.79,0,0,1,2.77,5.67,42.87,42.87,0,0,1,.81,9.36v31.08q0,4.74,1.67,6.53c1.12,1.2,3,1.79,5.72,1.79v2.43q-11.55-.47-15.25-.46-3.46,0-15,.46v-2.43c2.31,0,3.93-.59,4.85-1.79s1.39-3.37,1.39-6.53V77.21q0-4.72-1.56-7.16t-5.61-2.43a10.35,10.35,0,0,0-8.09,3.87A14.08,14.08,0,0,0,476.91,81v32.12c0,3.16.47,5.34,1.39,6.53s2.54,1.79,4.85,1.79v2.43q-10.63-.47-14.33-.46-3.46,0-15.94.46v-2.43c2.77,0,4.7-.59,5.77-1.79s1.62-3.37,1.62-6.53V76.75q0-5.31-1.62-7.74c-1.07-1.62-3-2.43-5.77-2.43V64.15c2.46.24,4.85.35,7.16.35a72.48,72.48,0,0,0,16.87-1.62v10.4q5.2-10.74,18.95-10.74Q504.65,62.54,508.58,67Z"/><path class="cls-2" d="M574.44,70.11q7.51,7.56,7.51,24T574.44,118q-7.52,7.52-20.8,7.52T532.9,118q-7.57-7.5-7.57-23.92t7.57-24q7.56-7.57,20.74-7.57T574.44,70.11Zm-28.71,2q-3,7.23-3,22t3,22q2.94,7.17,7.91,7.16t8-7.1q2.88-7.11,2.88-22T561.56,72q-3-7.16-7.92-7.16T545.73,72.07Z"/></svg>